<?xml version="1.0" encoding="UTF-8"?>
<svg version="1.1" xmlns="http://www.w3.org/2000/svg" width="1024" height="1024">
<path d="M0 0 C1.32451172 0.71929687 1.32451172 0.71929687 2.67578125 1.453125 C3.95439432 2.09511733 5.23304391 2.73703695 6.51171875 3.37890625 C8.02665101 4.17083337 9.53954508 4.96666722 11.05078125 5.765625 C11.87513672 6.20003906 12.69949219 6.63445312 13.54882812 7.08203125 C21.15602228 11.12104858 28.6392684 15.36856436 36.12231445 19.63183594 C42.86549404 23.46192142 49.67182724 27.13761525 56.54956055 30.71923828 C64.4244289 34.82463553 72.2141353 39.08029857 80 43.3515625 C83.9279532 45.50504862 87.86919495 47.63151311 91.8203125 49.7421875 C92.82151123 50.2798877 93.82270996 50.81758789 94.85424805 51.37158203 C96.77327963 52.40161655 98.69518966 53.42631189 100.62036133 54.44482422 C108.5613453 58.72284013 108.5613453 58.72284013 111.67578125 62.453125 C111.01578125 62.453125 110.35578125 62.453125 109.67578125 62.453125 C109.77318604 64.34768433 109.77318604 64.34768433 109.87255859 66.28051758 C110.79745797 85.77178 111.09130278 105.27703948 111.22410965 124.78797722 C111.26040717 130.02417626 111.31481332 135.25889052 111.40966797 140.49438477 C111.50233816 145.6326904 111.55109493 150.76966857 111.56861496 155.90876198 C111.58267008 157.84936781 111.6122212 159.78992856 111.65791702 161.73004723 C111.99526092 176.73396847 111.99526092 176.73396847 108.80999756 180.88406372 C106.47593733 182.48044724 104.32716365 183.49176873 101.67578125 184.453125 C100.68191406 185.02869141 99.68804687 185.60425781 98.6640625 186.19726562 C97.78105469 186.66326172 96.89804687 187.12925781 95.98828125 187.609375 C94.9725 188.14981445 93.95671875 188.69025391 92.91015625 189.24707031 C91.8428125 189.81006836 90.77546875 190.37306641 89.67578125 190.953125 C87.36235531 192.18576376 85.04987947 193.42018707 82.73828125 194.65625 C82.15232178 194.96947205 81.5663623 195.28269409 80.96264648 195.60540771 C74.82402924 198.89485723 68.74602736 202.28960795 62.67578125 205.703125 C61.64179199 206.28449219 60.60780273 206.86585938 59.54248047 207.46484375 C57.53300625 208.59535325 55.52372249 209.72620138 53.51464844 210.85742188 C46.58498829 214.75252496 39.63151197 218.6048305 32.67578125 222.453125 C31.74894531 222.96746094 30.82210937 223.48179687 29.8671875 224.01171875 C28.20384613 224.92772422 26.53586694 225.83536019 24.86328125 226.734375 C22.99331739 227.74268885 21.12695483 228.75783058 19.26953125 229.7890625 C16.47572811 231.3384993 13.67030601 232.86529201 10.86328125 234.390625 C9.95473389 234.90036865 9.04618652 235.4101123 8.11010742 235.93530273 C7.23845947 236.40395752 6.36681152 236.8726123 5.46875 237.35546875 C4.69039795 237.78335693 3.9120459 238.21124512 3.11010742 238.65209961 C-0.95133618 239.98853492 -4.10585062 238.97093146 -7.95117188 237.33666992 C-9.26504883 236.64214722 -9.26504883 236.64214722 -10.60546875 235.93359375 C-11.60006104 235.41249023 -12.59465332 234.89138672 -13.61938477 234.35449219 C-15.20577759 233.50612793 -15.20577759 233.50612793 -16.82421875 232.640625 C-17.93788818 232.05313477 -19.05155762 231.46564453 -20.19897461 230.86035156 C-27.99567703 226.73389207 -35.74573967 222.5228712 -43.47998047 218.28076172 C-51.38323709 213.95038536 -59.31579526 209.67600947 -67.26583862 205.43225098 C-68.71324918 204.65886904 -70.15981427 203.88390255 -71.60549927 203.1072998 C-73.63706848 202.01643042 -75.67162012 200.93133636 -77.70703125 199.84765625 C-78.62120567 199.35477867 -78.62120567 199.35477867 -79.55384827 198.85194397 C-81.86614445 197.62723704 -83.99369125 196.53102625 -86.55029297 195.9284668 C-88.84362738 195.31394407 -89.67116327 194.13579963 -91.32421875 192.453125 C-93.05733875 191.48356438 -94.82539463 190.57535299 -96.61328125 189.7109375 C-97.63679688 189.20175781 -98.6603125 188.69257812 -99.71484375 188.16796875 C-101.87431344 187.10649029 -104.03843039 186.05441533 -106.20703125 185.01171875 C-107.22796875 184.49996094 -108.24890625 183.98820313 -109.30078125 183.4609375 C-110.24002441 183.00348145 -111.17926758 182.54602539 -112.14697266 182.07470703 C-114.32421875 180.453125 -114.32421875 180.453125 -115.01318359 177.82763672 C-115.1158252 177.04404785 -115.2184668 176.26045898 -115.32421875 175.453125 C-115.98421875 175.123125 -116.64421875 174.793125 -117.32421875 174.453125 C-116.66421875 174.453125 -116.00421875 174.453125 -115.32421875 174.453125 C-115.32421875 137.163125 -115.32421875 99.873125 -115.32421875 61.453125 C-89.3783949 46.78809413 -89.3783949 46.78809413 -79.82421875 41.953125 C-70.82842444 37.3368344 -61.99372075 32.50186546 -53.21899414 27.47973633 C-44.2874131 22.38571072 -35.23134343 17.53568497 -26.14501953 12.7253418 C-21.24460482 10.12339118 -16.3616246 7.52852184 -11.61328125 4.65625 C-10.96302979 4.2641333 -10.31277832 3.8720166 -9.64282227 3.46801758 C-8.04796145 2.48954952 -6.46834468 1.48634218 -4.890625 0.48046875 C-2.32421875 -0.546875 -2.32421875 -0.546875 0 0 Z M70.67578125 49.453125 C66.25549931 50.37409155 61.84035877 51.31772333 57.42578125 52.265625 C56.17152344 52.52666016 54.91726563 52.78769531 53.625 53.05664062 C52.41972656 53.31767578 51.21445312 53.57871094 49.97265625 53.84765625 C48.30734863 54.20114136 48.30734863 54.20114136 46.60839844 54.56176758 C43.69527213 55.44720082 41.95304066 56.46900217 39.67578125 58.453125 C42.31578125 59.773125 44.95578125 61.093125 47.67578125 62.453125 C43.95631215 66.41301605 40.06110978 69.44324329 35.55078125 72.453125 C34.13514423 73.40845058 32.71979254 74.36419909 31.3046875 75.3203125 C30.55848145 75.82272461 29.81227539 76.32513672 29.04345703 76.84277344 C26.53830239 78.5466299 24.05687204 80.2814122 21.578125 82.0234375 C20.73072754 82.61511719 19.88333008 83.20679688 19.01025391 83.81640625 C17.3560428 84.97195198 15.70581743 86.13322904 14.06005859 87.30078125 C13.30031738 87.82800781 12.54057617 88.35523438 11.7578125 88.8984375 C11.08983643 89.36781738 10.42186035 89.83719727 9.73364258 90.32080078 C7.29528803 91.66248881 5.45438024 92.22591873 2.67578125 92.453125 C0.3515625 91.6328125 0.3515625 91.6328125 -2.01171875 90.328125 C-2.87539062 89.86921875 -3.7390625 89.4103125 -4.62890625 88.9375 C-6.42578125 87.94791667 -8.22265625 86.95833333 -10.01953125 85.96875 C-10.88320312 85.50984375 -11.746875 85.0509375 -12.63671875 84.578125 C-13.41660156 84.14757812 -14.19648438 83.71703125 -15 83.2734375 C-17.87271358 82.25953859 -19.43835568 82.57876583 -22.32421875 83.453125 C-24.82661893 84.75430052 -24.82661893 84.75430052 -27.32421875 86.453125 C-28.28972656 87.08734375 -29.25523437 87.7215625 -30.25 88.375 C-34.45835409 91.2197832 -38.64437415 94.09497353 -42.80859375 97.00390625 C-45.93542418 99.18754124 -49.07985937 101.34461244 -52.22753906 103.49804688 C-71.49220728 114.60023494 -71.49220728 114.60023494 -86.32421875 129.453125 C-82.84240971 128.88963467 -80.22521876 128.0468369 -77.19140625 126.2578125 C-76.39839111 125.79648926 -75.60537598 125.33516602 -74.78833008 124.85986328 C-73.93392334 124.35438965 -73.0795166 123.84891602 -72.19921875 123.328125 C-70.32651393 122.23787572 -68.45276134 121.14942476 -66.578125 120.0625 C-65.57539551 119.48048828 -64.57266602 118.89847656 -63.53955078 118.29882812 C-56.65567314 114.34726283 -49.69166347 110.53674267 -42.73974609 106.70654297 C-35.1379872 102.50452577 -27.55516316 98.27375461 -20.32421875 93.453125 C-14.79740401 93.64676522 -10.75940659 96.200815 -6.13671875 98.953125 C-4.72785908 99.77825949 -3.31775044 100.60126609 -1.90625 101.421875 C-1.28983643 101.78732422 -0.67342285 102.15277344 -0.03833008 102.52929688 C1.83185344 103.60054775 1.83185344 103.60054775 4.67578125 104.453125 C7.29580902 102.83091154 9.7110899 101.16387779 12.17578125 99.328125 C13.70727384 98.21598745 15.23986798 97.10536559 16.7734375 95.99609375 C17.57410645 95.4139209 18.37477539 94.83174805 19.19970703 94.23193359 C24.08378553 90.72321776 29.07005506 87.36244443 34.04956055 83.99121094 C37.37642452 81.7334865 40.68845889 79.4806795 43.88671875 77.04296875 C44.74523437 76.39457031 45.60375 75.74617188 46.48828125 75.078125 C47.17535156 74.53414062 47.86242187 73.99015625 48.5703125 73.4296875 C51.59151623 72.02838707 53.50692155 72.61638035 56.67578125 73.453125 C59.05078125 74.515625 59.05078125 74.515625 60.67578125 75.453125 C63.66724062 69.70846408 66.44739746 63.88245814 69.05078125 57.953125 C69.57414063 56.7671875 70.0975 55.58125 70.63671875 54.359375 C70.97960937 53.4003125 71.3225 52.44125 71.67578125 51.453125 C71.34578125 50.793125 71.01578125 50.133125 70.67578125 49.453125 Z M33.67578125 95.453125 C33.67578125 117.233125 33.67578125 139.013125 33.67578125 161.453125 C46.32081966 155.19025458 46.32081966 155.19025458 58.67578125 148.453125 C59.7121875 147.86337891 59.7121875 147.86337891 60.76953125 147.26171875 C62.40706733 146.32923293 64.04178666 145.39180274 65.67578125 144.453125 C65.70105015 137.63550606 65.71861369 130.81789911 65.73071289 124.00024414 C65.73575458 121.67895049 65.74258776 119.35766003 65.7512207 117.03637695 C65.7632935 113.70783705 65.76901104 110.37933898 65.7734375 107.05078125 C65.77859879 106.00600113 65.78376007 104.96122101 65.78907776 103.88478088 C65.78915329 102.92386032 65.78922882 101.96293976 65.78930664 100.97290039 C65.79152725 100.12240616 65.79374786 99.27191193 65.79603577 98.39564514 C65.89058409 96.44723955 65.89058409 96.44723955 64.67578125 95.453125 C54.44578125 95.453125 44.21578125 95.453125 33.67578125 95.453125 Z M-22.32421875 113.453125 C-23.19978365 128.57068579 -23.45043078 143.62500106 -23.38671875 158.765625 C-23.38168439 160.88606663 -23.37712497 163.00650944 -23.37304688 165.12695312 C-23.36221606 170.23570724 -23.34506283 175.34440234 -23.32421875 180.453125 C-19.35877827 178.97325695 -15.76043961 177.11570363 -12.0703125 175.046875 C-11.48758072 174.72150757 -10.90484894 174.39614014 -10.30445862 174.06091309 C-8.45528253 173.02780641 -6.60840908 171.99066735 -4.76171875 170.953125 C-2.91105206 169.91632749 -1.05990845 168.88039293 0.79173279 167.84533691 C2.46956809 166.90697946 4.14607509 165.9662481 5.82250977 165.02539062 C8.67578125 163.453125 8.67578125 163.453125 11.01196289 162.47924805 C11.56102295 162.14062744 12.11008301 161.80200684 12.67578125 161.453125 C14.06919924 154.27335548 13.82617976 146.93423175 13.80078125 139.640625 C13.80464844 138.54169922 13.80851562 137.44277344 13.8125 136.31054688 C13.80385794 128.97776228 13.39940592 121.74953641 12.67578125 114.453125 C1.02412434 113.14906992 -10.61515452 113.35639277 -22.32421875 113.453125 Z M-88.32421875 129.453125 C-89.31421875 130.443125 -90.30421875 131.433125 -91.32421875 132.453125 C-89.67421875 131.793125 -88.02421875 131.133125 -86.32421875 130.453125 C-86.98421875 130.123125 -87.64421875 129.793125 -88.32421875 129.453125 Z M-72.32421875 140.453125 C-72.32421875 156.953125 -72.32421875 173.453125 -72.32421875 190.453125 C-68.86207299 189.0682667 -65.85887502 187.73887035 -62.63671875 185.95703125 C-61.77304688 185.48072266 -60.909375 185.00441406 -60.01953125 184.51367188 C-59.13007813 184.01931641 -58.240625 183.52496094 -57.32421875 183.015625 C-56.43476563 182.52513672 -55.5453125 182.03464844 -54.62890625 181.52929688 C-52.92370342 180.58634516 -51.22306749 179.63507203 -49.52783203 178.67431641 C-47.80533609 177.71974908 -46.03654711 176.8486074 -44.25390625 176.01171875 C-42.03760425 174.53956867 -42.03760425 174.53956867 -41.58203125 171.546875 C-41.51628906 169.76796875 -41.51628906 169.76796875 -41.44921875 167.953125 C-41.40873413 166.99007446 -41.40873413 166.99007446 -41.36743164 166.00756836 C-41.10746177 157.47914037 -41.76558014 148.95684603 -42.32421875 140.453125 C-52.22421875 140.453125 -62.12421875 140.453125 -72.32421875 140.453125 Z " fill="#004486" transform="translate(214.32421875,353.546875)"/>
<path d="M0 0 C0.23375684 15.15084278 0.41001771 30.30160236 0.51812172 45.45384407 C0.56965507 52.48969985 0.63988746 59.52443437 0.75439453 66.55957031 C0.8648382 73.34830212 0.92283232 80.13586817 0.94877243 86.92544174 C0.96725889 89.51638 1.00336025 92.10725401 1.05730057 94.69769669 C1.1298528 98.32607255 1.13989408 101.94962949 1.13525391 105.57861328 C1.17120667 106.65107803 1.20715942 107.72354279 1.24420166 108.82850647 C1.20213407 111.86638749 1.07252667 114.15410767 0 117 C-3.03641646 119.73373565 -6.28304335 121.36086692 -10 123 C-11.51110352 123.84933105 -11.51110352 123.84933105 -13.05273438 124.71582031 C-13.89126953 125.16538086 -14.72980469 125.61494141 -15.59375 126.078125 C-16.55168457 126.59383057 -17.50961914 127.10953613 -18.49658203 127.64086914 C-19.48770996 128.17188232 -20.47883789 128.70289551 -21.5 129.25 C-28.73238201 133.145425 -35.95245129 137.05788166 -43.125 141.0625 C-50.07387763 144.93387979 -57.02970199 148.79229526 -64 152.625 C-64.96309082 153.15875244 -65.92618164 153.69250488 -66.91845703 154.24243164 C-67.81161621 154.73219482 -68.70477539 155.22195801 -69.625 155.7265625 C-70.42164063 156.16564941 -71.21828125 156.60473633 -72.0390625 157.05712891 C-74 158 -74 158 -76 158 C-76.33 139.85 -76.66 121.7 -77 103 C-81.455 103.495 -81.455 103.495 -86 104 C-86.33 103.34 -86.66 102.68 -87 102 C-88.98 102 -90.96 102 -93 102 C-93.495 102.99 -93.495 102.99 -94 104 C-94 86.84 -94 69.68 -94 52 C-94.66 51.67 -95.32 51.34 -96 51 C-80.01030928 40 -80.01030928 40 -76 40 C-76 60.13 -76 80.26 -76 101 C-75.34 101 -74.68 101 -74 101 C-74 100.34 -74 99.68 -74 99 C-73.29915283 98.62190186 -72.59830566 98.24380371 -71.8762207 97.85424805 C-68.68766688 96.13319413 -65.50007542 94.41036529 -62.3125 92.6875 C-61.20970703 92.09259766 -60.10691406 91.49769531 -58.97070312 90.88476562 C-57.90400391 90.30791016 -56.83730469 89.73105469 -55.73828125 89.13671875 C-54.75899658 88.60780029 -53.77971191 88.07888184 -52.77075195 87.53393555 C-50.90957083 86.50355393 -49.0740591 85.42551474 -47.26635742 84.30395508 C-45 83 -45 83 -43 83 C-43.33 66.83 -43.66 50.66 -44 34 C-43.01 33.67 -42.02 33.34 -41 33 C-46.61 33 -52.22 33 -58 33 C-54.0796131 29.0796131 -51.48524212 26.85746954 -46.87109375 24.1796875 C-46.28803467 23.8387355 -45.70497559 23.49778351 -45.10424805 23.14649963 C-43.21995074 22.04780988 -41.32920324 20.96088089 -39.4375 19.875 C-38.13335885 19.12019444 -36.82940503 18.36506514 -35.52563477 17.60961914 C-32.29186988 15.7401094 -29.05137075 13.88269381 -25.80712891 12.03143311 C-24.12029452 11.06865905 -22.43508388 10.10304162 -20.75 9.13720703 C-17.98588933 7.55829974 -15.21443359 5.99371958 -12.4375 4.4375 C-11.63046631 3.97907715 -10.82343262 3.5206543 -9.99194336 3.04833984 C-9.25081299 2.63922363 -8.50968262 2.23010742 -7.74609375 1.80859375 C-7.11372803 1.45595459 -6.4813623 1.10331543 -5.82983398 0.73999023 C-4 0 -4 0 0 0 Z " fill="#0094B3" transform="translate(323,415)"/>
<path d="M0 0 C0.99 0.495 0.99 0.495 2 1 C-4.96938762 5.26708828 -12.04926497 9.26309019 -19.25 13.125 C-21.382981 14.27442696 -23.5157899 15.42417332 -25.6484375 16.57421875 C-26.71416992 17.14833496 -27.77990234 17.72245117 -28.87792969 18.31396484 C-33.55272018 20.83852718 -38.21385429 23.387861 -42.875 25.9375 C-52.12447516 30.99377861 -61.40716535 35.98690545 -70.69677734 40.96899414 C-77.67367759 44.71982882 -84.60839977 48.53406688 -91.45849609 52.51245117 C-95.78963037 55 -95.78963037 55 -98 55 C-97.67 92.95 -97.34 130.9 -97 170 C-93.15715022 170 -90.77514805 168.39601485 -87.5390625 166.53515625 C-86.91148041 166.1823912 -86.28389832 165.82962616 -85.63729858 165.46617126 C-82.95355579 163.95753219 -80.2782041 162.43428384 -77.60253906 160.91137695 C-75.64699536 159.80118359 -73.68696851 158.699234 -71.7265625 157.59765625 C-71.12744049 157.25283707 -70.52831848 156.90801788 -69.91104126 156.55274963 C-66.62613278 154.7088626 -63.74416668 153.49538341 -60 153 C-60 152.34 -60 151.68 -60 151 C-59.34 151 -58.68 151 -58 151 C-58 145.39 -58 139.78 -58 134 C-57.67 134 -57.34 134 -57 134 C-57 150.5 -57 167 -57 184 C-43.59388936 176.11848304 -43.59388936 176.11848304 -30.22265625 168.1796875 C-28 167 -28 167 -26 167 C-26 155.78 -26 144.56 -26 133 C-27.32 133.33 -28.64 133.66 -30 134 C-32.53285059 134.09600549 -35.03068292 134.14165669 -37.5625 134.125 C-38.26761719 134.12306641 -38.97273438 134.12113281 -39.69921875 134.11914062 C-45.5016978 134.0716658 -51.23621911 133.68383841 -57 133 C-57 132.67 -57 132.34 -57 132 C-46.11 132 -35.22 132 -24 132 C-23.89573085 157.02459625 -24.26325205 181.98779905 -25 207 C-25.66 207.33 -26.32 207.66 -27 208 C-24.04550087 209.6735337 -21.0857982 211.33763985 -18.125 213 C-17.28324219 213.47695313 -16.44148438 213.95390625 -15.57421875 214.4453125 C-14.36572266 215.12207031 -14.36572266 215.12207031 -13.1328125 215.8125 C-12.38918457 216.23144531 -11.64555664 216.65039062 -10.87939453 217.08203125 C-9.04908534 218.14629451 -9.04908534 218.14629451 -7 218 C-7.03029297 217.05874268 -7.06058594 216.11748535 -7.09179688 215.14770508 C-7.89710873 189.36800124 -8.090705 163.60244833 -8.0625 137.8125 C-8.06164398 137.0242194 -8.06078796 136.2359388 -8.05990601 135.4237709 C-8.04846826 125.61582372 -8.02832374 115.8079134 -8 106 C-7.67 106 -7.34 106 -7 106 C-6.21907471 119.76580945 -5.8392874 133.48531275 -5.86962891 147.27319336 C-5.87511858 150.25183925 -5.86957296 153.23034227 -5.86328125 156.20898438 C-5.86394005 158.1119795 -5.86521709 160.01497453 -5.8671875 161.91796875 C-5.86516327 162.80421432 -5.86313904 163.6904599 -5.86105347 164.6035614 C-5.88496224 170.76992448 -5.88496224 170.76992448 -7 173 C-6.37657715 172.64284912 -5.7531543 172.28569824 -5.11083984 171.91772461 C-2.20110223 170.2537536 0.7119281 168.59562634 3.625 166.9375 C4.6046875 166.37611328 5.584375 165.81472656 6.59375 165.23632812 C14.29292219 160.86179847 22.04990023 156.97504988 30 153 C30.33 175.77 30.66 198.54 31 222 C34.63 220.02 38.26 218.04 42 216 C43.32 215.67 44.64 215.34 46 215 C42.21511119 219.27878152 36.94749181 221.57218399 31.99487305 224.26269531 C30.19529722 225.24574065 28.40956572 226.25128143 26.62304688 227.2578125 C25.48287109 227.87914062 24.34269531 228.50046875 23.16796875 229.140625 C22.12922607 229.71329102 21.0904834 230.28595703 20.02026367 230.87597656 C15.55475613 232.53786297 12.66459348 231.70745223 8.37304688 229.88354492 C7.05916992 229.18902222 7.05916992 229.18902222 5.71875 228.48046875 C4.72415771 227.95936523 3.72956543 227.43826172 2.70483398 226.90136719 C1.11844116 226.05300293 1.11844116 226.05300293 -0.5 225.1875 C-1.61366943 224.60000977 -2.72733887 224.01251953 -3.87475586 223.40722656 C-11.67145828 219.28076707 -19.42152092 215.0697462 -27.15576172 210.82763672 C-35.05901834 206.49726036 -42.99157651 202.22288447 -50.94161987 197.97912598 C-52.38903043 197.20574404 -53.83559552 196.43077755 -55.28128052 195.6541748 C-57.31284973 194.56330542 -59.34740137 193.47821136 -61.3828125 192.39453125 C-62.29698692 191.90165367 -62.29698692 191.90165367 -63.22962952 191.39881897 C-65.5419257 190.17411204 -67.6694725 189.07790125 -70.22607422 188.4753418 C-72.51940863 187.86081907 -73.34694452 186.68267463 -75 185 C-76.73312 184.03043938 -78.50117588 183.12222799 -80.2890625 182.2578125 C-81.31257813 181.74863281 -82.33609375 181.23945312 -83.390625 180.71484375 C-85.55009469 179.65336529 -87.71421164 178.60129033 -89.8828125 177.55859375 C-90.90375 177.04683594 -91.9246875 176.53507813 -92.9765625 176.0078125 C-93.91580566 175.55035645 -94.85504883 175.09290039 -95.82275391 174.62158203 C-98 173 -98 173 -98.68896484 170.37451172 C-98.79160645 169.59092285 -98.89424805 168.80733398 -99 168 C-99.66 167.67 -100.32 167.34 -101 167 C-100.34 167 -99.68 167 -99 167 C-99 129.71 -99 92.42 -99 54 C-73.05417615 39.33496913 -73.05417615 39.33496913 -63.5 34.5 C-55.46114067 30.37477108 -47.53173635 26.10918227 -39.6875 21.625 C-31.37120846 16.87933403 -23.01567529 12.21445039 -14.59414673 7.65838623 C-13.32807252 6.97218483 -12.06354736 6.28311727 -10.80062866 5.59112549 C-9.04193817 4.62841179 -7.27696393 3.67720405 -5.51171875 2.7265625 C-4.49553467 2.17564941 -3.47935059 1.62473633 -2.43237305 1.05712891 C-1.62968994 0.70827637 -0.82700684 0.35942383 0 0 Z " fill="#002E5F" transform="translate(198,361)"/>
<path d="M0 0 C0.66 0 1.32 0 2 0 C2.09260095 13.6211585 2.16371487 27.24224235 2.20724869 40.86365128 C2.2281407 47.1883479 2.25648834 53.51282949 2.30175781 59.83740234 C2.34515716 65.93874989 2.36912494 72.03989035 2.37950897 78.14138031 C2.38691091 80.47145601 2.4013648 82.80152013 2.42292023 85.13150787 C2.45187487 88.39033171 2.45595922 91.6482952 2.45410156 94.90722656 C2.47567322 96.35839622 2.47567322 96.35839622 2.49768066 97.83888245 C2.45725191 104.37512367 2.45725191 104.37512367 0.15866089 107.51635742 C-2.62799311 109.4316182 -5.46003715 111.08023477 -8.4453125 112.671875 C-9.05639862 112.99915588 -9.66748474 113.32643677 -10.29708862 113.66363525 C-11.5811506 114.34935738 -12.86708905 115.03157609 -14.15478516 115.71044922 C-16.13009259 116.75268702 -18.09854771 117.8070583 -20.06640625 118.86328125 C-29.7132227 124 -29.7132227 124 -32 124 C-32.33 105.85 -32.66 87.7 -33 69 C-37.455 69.495 -37.455 69.495 -42 70 C-42.33 69.34 -42.66 68.68 -43 68 C-44.98 68 -46.96 68 -49 68 C-49.495 68.99 -49.495 68.99 -50 70 C-50 52.84 -50 35.68 -50 18 C-50.66 17.67 -51.32 17.34 -52 17 C-36.01030928 6 -36.01030928 6 -32 6 C-32 26.13 -32 46.26 -32 67 C-31.34 67 -30.68 67 -30 67 C-30 66.34 -30 65.68 -30 65 C-29.29915283 64.62190186 -28.59830566 64.24380371 -27.8762207 63.85424805 C-24.68766688 62.13319413 -21.50007542 60.41036529 -18.3125 58.6875 C-17.20970703 58.09259766 -16.10691406 57.49769531 -14.97070312 56.88476562 C-13.90400391 56.30791016 -12.83730469 55.73105469 -11.73828125 55.13671875 C-10.75899658 54.60780029 -9.77971191 54.07888184 -8.77075195 53.53393555 C-6.90957083 52.50355393 -5.0740591 51.42551474 -3.26635742 50.30395508 C-1 49 -1 49 1 49 C0.67 32.83 0.34 16.66 0 0 Z " fill="#00799E" transform="translate(279,449)"/>
<path d="M0 0 C6.60989817 0.09337899 6.60989817 0.09337899 9.22265625 2.0703125 C10.80841117 4.50211158 12.0281945 7.01978961 13.3125 9.625 C15.05556493 12.46861322 16.87849968 15.26049535 18.6875 18.0625 C23.3125 25.29706352 23.3125 25.29706352 23.3125 27.625 C24.3025 27.955 25.2925 28.285 26.3125 28.625 C28.10684505 25.70997315 29.8975015 22.79269755 31.6875 19.875 C32.44933594 18.6375 32.44933594 18.6375 33.2265625 17.375 C33.71640625 16.57578125 34.20625 15.7765625 34.7109375 14.953125 C35.16130371 14.2199707 35.61166992 13.48681641 36.07568359 12.73144531 C37.24911168 10.73295784 38.30285472 8.71022657 39.3125 6.625 C39.9725 6.625 40.6325 6.625 41.3125 6.625 C41.9725 4.975 42.6325 3.325 43.3125 1.625 C47.9325 1.295 52.5525 0.965 57.3125 0.625 C57.46552506 8.43066629 57.61428894 16.23638535 57.7554636 24.04227352 C57.8211825 27.66650485 57.88879966 31.2906804 57.96069336 34.91479492 C58.02995158 38.40952609 58.09430408 41.90431573 58.15519524 45.39920235 C58.19113704 47.38745142 58.23221453 49.37560547 58.27333069 51.36375427 C58.29342697 52.56492386 58.31352325 53.76609344 58.33422852 55.00366211 C58.35421402 56.06733505 58.37419952 57.131008 58.39479065 58.22691345 C58.3125 60.625 58.3125 60.625 57.3125 61.625 C55.55033655 61.91335402 53.77638573 62.13133218 52 62.3125 C51.03449219 62.41949219 50.06898438 62.52648437 49.07421875 62.63671875 C46.06646051 62.62395599 44.64730562 62.53238125 42.3125 60.625 C41.43528674 56.64865648 41.19300453 52.85115774 41.21484375 48.7890625 C41.21806641 47.72558594 41.22128906 46.66210938 41.22460938 45.56640625 C41.23717773 43.92478516 41.23717773 43.92478516 41.25 42.25 C41.25451172 41.13238281 41.25902344 40.01476562 41.26367188 38.86328125 C41.27540756 36.11713196 41.29182637 33.37109414 41.3125 30.625 C40.29929687 32.17960937 40.29929687 32.17960937 39.265625 33.765625 C38.36483237 35.13558045 37.46377682 36.50536304 36.5625 37.875 C35.89734375 38.89787109 35.89734375 38.89787109 35.21875 39.94140625 C32.84710034 43.53375794 30.52548786 46.71229138 27.3125 49.625 C26.3225 49.13 26.3225 49.13 25.3125 48.625 C24.8175 49.615 24.8175 49.615 24.3125 50.625 C19.96252512 46.65123916 17.03338701 42.34118158 14 37.3125 C13.54560547 36.57193359 13.09121094 35.83136719 12.62304688 35.06835938 C11.51329596 33.25771314 10.41202019 31.44187705 9.3125 29.625 C9.29791748 30.5536084 9.28333496 31.4822168 9.26831055 32.43896484 C9.20730828 35.87966496 9.1331695 39.31955652 9.05004883 42.75976562 C9.01676537 44.24956572 8.98874403 45.73949295 8.96606445 47.22949219 C8.93257929 49.36969252 8.88027211 51.50872419 8.82421875 53.6484375 C8.79803467 54.93669434 8.77185059 56.22495117 8.74487305 57.55224609 C8.60218994 58.56625488 8.45950684 59.58026367 8.3125 60.625 C4.65966253 63.06022498 1.56281548 63.17974367 -2.6875 62.625 C-4.03250772 61.98221197 -5.36767808 61.31803125 -6.6875 60.625 C-6.84110914 52.94973491 -6.98929086 45.27438155 -7.1304636 37.59887791 C-7.19618172 34.03517974 -7.26379855 30.47153832 -7.33569336 26.90795898 C-7.41818566 22.81503366 -7.49252956 18.72199621 -7.56640625 14.62890625 C-7.59344131 13.34351456 -7.62047638 12.05812286 -7.64833069 10.73377991 C-7.66842697 9.55263107 -7.68852325 8.37148224 -7.70922852 7.15454102 C-7.72921402 6.10863297 -7.74919952 5.06272491 -7.76979065 3.98512268 C-7.60389043 -0.77294973 -4.08222888 0.2303452 0 0 Z M42.3125 26.625 C43.3125 29.625 43.3125 29.625 43.3125 29.625 Z " fill="#004486" transform="translate(367.6875,449.375)"/>
<path d="M0 0 C40.23843149 0 40.23843149 0 46.69140625 6.4375 C49.65539443 9.97659037 50.18574012 12.79282363 50 17.3125 C49.29400103 22.63877075 46.49744415 26.07473394 43 30 C43.61359375 30.27972656 44.2271875 30.55945313 44.859375 30.84765625 C48.23412077 32.66435333 49.31102116 34.56172164 51 38 C51.8707633 43.30446637 51.95353087 48.29194635 49 52.9375 C43.40616307 59.48983146 37.43311612 60.0629871 29 61 C19.43 61 9.86 61 0 61 C0 40.87 0 20.74 0 0 Z M15 12 C15 15.96 15 19.92 15 24 C17.60478883 24.0809313 20.20706653 24.14045434 22.8125 24.1875 C23.55048828 24.21263672 24.28847656 24.23777344 25.04882812 24.26367188 C29.24833757 24.36028496 29.24833757 24.36028496 32.984375 22.67578125 C34.60337267 20.0044351 34.44325562 18.03946708 34 15 C31.69978457 12.66162933 30.37664171 12.03791695 27.08984375 11.70703125 C25.52943359 11.75923828 25.52943359 11.75923828 23.9375 11.8125 C22.37322266 11.85310547 22.37322266 11.85310547 20.77734375 11.89453125 C19.86082031 11.92933594 18.94429687 11.96414063 18 12 C17.01 12 16.02 12 15 12 Z M15 35 C15 39.62 15 44.24 15 49 C25.49640089 49.68300733 25.49640089 49.68300733 35 46 C36.32908167 43.10927047 36.32908167 43.10927047 36 40 C33.81567858 37.11357527 32.44696406 36.14898802 29 35 C24.33032246 34.86409553 19.67262015 34.95713193 15 35 Z " fill="#008DA8" transform="translate(675,450)"/>
<path d="M0 0 C1.39798828 0.04060547 1.39798828 0.04060547 2.82421875 0.08203125 C9.07060779 0.35591818 14.37096519 1.02465276 19.33203125 5.1796875 C24.07827105 11.38501869 25.2861914 16.07000764 24.625 23.75 C24.09971243 26.48511806 23.40446442 29.07059107 22.625 31.75 C21.965 31.75 21.305 31.75 20.625 31.75 C20.625 32.41 20.625 33.07 20.625 33.75 C19.09375 35.0390625 19.09375 35.0390625 17.125 36.375 C16.4753125 36.82101562 15.825625 37.26703125 15.15625 37.7265625 C14.6509375 38.06429687 14.145625 38.40203125 13.625 38.75 C13.98327881 39.27432617 14.34155762 39.79865234 14.71069336 40.33886719 C16.33403433 42.72184004 17.94832905 45.11080713 19.5625 47.5 C20.12646484 48.325 20.69042969 49.15 21.27148438 50 C22.07875977 51.19882812 22.07875977 51.19882812 22.90234375 52.421875 C23.39984131 53.1550293 23.89733887 53.88818359 24.40991211 54.64355469 C25.59802448 56.70323593 26.18189098 58.42654755 26.625 60.75 C20.66385864 61.94222827 13.98279314 63.2368285 8.625 59.75 C7.16455078 57.79467773 7.16455078 57.79467773 5.8203125 55.43359375 C5.06814453 54.16418945 5.06814453 54.16418945 4.30078125 52.86914062 C3.26718295 51.08182266 2.24111937 49.2901261 1.22265625 47.49414062 C0.71863281 46.64916016 0.21460938 45.80417969 -0.3046875 44.93359375 C-0.75054199 44.15556396 -1.19639648 43.37753418 -1.65576172 42.57592773 C-3.6576686 40.08061757 -3.6576686 40.08061757 -9.375 39.75 C-9.375 47.01 -9.375 54.27 -9.375 61.75 C-11.664375 61.605625 -13.95375 61.46125 -16.3125 61.3125 C-17.60027344 61.23128906 -18.88804687 61.15007812 -20.21484375 61.06640625 C-23.375 60.75 -23.375 60.75 -24.375 59.75 C-24.46881302 57.90881971 -24.49243954 56.06402359 -24.48852539 54.22045898 C-24.48844986 53.03931015 -24.48837433 51.85816132 -24.48829651 50.64122009 C-24.48313522 49.3558284 -24.47797394 48.07043671 -24.47265625 46.74609375 C-24.4712413 45.43794205 -24.46982635 44.12979034 -24.46836853 42.78199768 C-24.4645441 39.29837141 -24.45471446 35.81478661 -24.44366455 32.33117676 C-24.43344882 28.77873292 -24.42887056 25.22628241 -24.42382812 21.67382812 C-24.41309212 14.69920168 -24.3960166 7.72460283 -24.375 0.75 C-22.33015921 0.58004793 -20.28501194 0.41378141 -18.23974609 0.24902344 C-17.10088959 0.15602966 -15.96203308 0.06303589 -14.78866577 -0.03277588 C-9.8366421 -0.34789138 -4.95227959 -0.23180883 0 0 Z M-9.375 12.75 C-9.375 17.7 -9.375 22.65 -9.375 27.75 C-6.3121875 27.87375 -6.3121875 27.87375 -3.1875 28 C-1.46466797 28.06960938 -1.46466797 28.06960938 0.29296875 28.140625 C4.28790537 27.67228542 5.86602446 26.63159667 8.625 23.75 C9.24810216 19.87291992 9.36517125 17.780757 7.04296875 14.546875 C3.71950922 12.07709893 1.465197 12.34851122 -2.625 12.5 C-5.96625 12.62375 -5.96625 12.62375 -9.375 12.75 Z " fill="#004488" transform="translate(560.375,450.25)"/>
<path d="M0 0 C5.94 0.33 11.88 0.66 18 1 C23.02433587 12.84519261 27.64031624 24.84359088 32.2878418 36.84033203 C33.35044144 39.58168247 34.41535108 42.32212714 35.48046875 45.0625 C35.96642769 46.32030273 35.96642769 46.32030273 36.46220398 47.60351562 C36.91826775 48.77624023 36.91826775 48.77624023 37.38354492 49.97265625 C37.64826096 50.65593994 37.91297699 51.33922363 38.18571472 52.04321289 C38.98709335 54.05627873 38.98709335 54.05627873 40.12446594 56.11108398 C41.22210315 58.47917519 40.8596115 59.59308779 40 62 C37.54066009 61.88630789 35.0832091 61.75957349 32.625 61.625 C31.92632813 61.5940625 31.22765625 61.563125 30.5078125 61.53125 C25.2265625 61.2265625 25.2265625 61.2265625 23 59 C22.01 55.7 21.02 52.4 20 49 C12.41 48.67 4.82 48.34 -3 48 C-3.99 51.3 -4.98 54.6 -6 58 C-8 61 -8 61 -10.20703125 61.58203125 C-18.85780761 62.34724235 -18.85780761 62.34724235 -23 60 C-20.82095481 53.24341475 -18.3835535 46.60741958 -15.83984375 39.98046875 C-15.44930313 38.95947586 -15.05876251 37.93848297 -14.65638733 36.8865509 C-13.83625686 34.74406781 -13.01515151 32.60195767 -12.19311523 30.46020508 C-10.93500074 27.1809858 -9.68117764 23.90014784 -8.42773438 20.61914062 C-7.62786045 18.5311518 -6.82773893 16.44325781 -6.02734375 14.35546875 C-5.65334946 13.37627975 -5.27935516 12.39709076 -4.89402771 11.38822937 C-4.36821861 10.02079338 -4.36821861 10.02079338 -3.83178711 8.62573242 C-3.52550888 7.82681076 -3.21923065 7.0278891 -2.90367126 6.20475769 C-2.03763828 4.09182906 -1.02122285 2.0424457 0 0 Z M8 16 C9 18 9 18 9 18 Z M7 18 C5.02 23.94 3.04 29.88 1 36 C5.95 36 10.9 36 16 36 C15.24023472 33.55854083 14.46782596 31.1223853 13.6875 28.6875 C13.47416016 27.99720703 13.26082031 27.30691406 13.04101562 26.59570312 C11.47750965 21.66042566 11.47750965 21.66042566 8 18 C7.67 18 7.34 18 7 18 Z " fill="#0090A9" transform="translate(751,450)"/>
<path d="M0 0 C1.36560059 0.00303635 1.36560059 0.00303635 2.75878906 0.00613403 C3.68723633 0.00517731 4.61568359 0.00422058 5.57226562 0.00323486 C7.53938871 0.00255298 9.50651403 0.00440781 11.47363281 0.00857544 C14.49581932 0.01392358 17.51785721 0.00863071 20.54003906 0.00222778 C22.44628939 0.00288856 24.35253963 0.00416972 26.25878906 0.00613403 C27.16918945 0.0041098 28.07958984 0.00208557 29.01757812 0 C35.39383938 0.02399685 35.39383938 0.02399685 36.50878906 1.13894653 C36.50878906 5.09894653 36.50878906 9.05894653 36.50878906 13.13894653 C26.93878906 13.13894653 17.36878906 13.13894653 7.50878906 13.13894653 C7.83878906 16.43894653 8.16878906 19.73894653 8.50878906 23.13894653 C16.09878906 23.13894653 23.68878906 23.13894653 31.50878906 23.13894653 C31.50878906 27.42894653 31.50878906 31.71894653 31.50878906 36.13894653 C23.58878906 35.80894653 15.66878906 35.47894653 7.50878906 35.13894653 C7.83878906 36.12894653 8.16878906 37.11894653 8.50878906 38.13894653 C8.42417414 39.87218773 8.27274552 41.60287465 8.07128906 43.32644653 C7.96945312 44.22750122 7.86761719 45.12855591 7.76269531 46.05691528 C7.63701172 47.08752075 7.63701172 47.08752075 7.50878906 48.13894653 C8.38204834 48.13370972 9.25530762 48.1284729 10.1550293 48.12307739 C13.38468179 48.10606902 16.61431152 48.09351284 19.84399414 48.08401489 C21.24374135 48.07897574 22.64348326 48.07214437 24.04321289 48.06350708 C26.05124683 48.05142334 28.05931864 48.04624847 30.06738281 48.04129028 C31.8819397 48.03343506 31.8819397 48.03343506 33.7331543 48.02542114 C36.50878906 48.13894653 36.50878906 48.13894653 37.50878906 49.13894653 C37.58105408 50.99182155 37.59260126 52.84728531 37.57128906 54.70144653 C37.56226563 55.7133606 37.55324219 56.72527466 37.54394531 57.76785278 C37.53234375 58.55031372 37.52074219 59.33277466 37.50878906 60.13894653 C32.92072022 62.43985103 28.826939 62.44546822 23.81347656 62.43972778 C22.98421661 62.44401291 22.15495667 62.44829803 21.30056763 62.45271301 C19.55406607 62.45843854 17.80754068 62.45896971 16.06103516 62.45462036 C13.38565778 62.45144875 10.71137456 62.47498093 8.03613281 62.50027466 C6.33691546 62.50254663 4.63769513 62.50325162 2.93847656 62.50222778 C2.13844208 62.51143753 1.33840759 62.52064728 0.51412964 62.53013611 C-4.98450493 62.48412757 -4.98450493 62.48412757 -7.20901489 60.96873474 C-9.01051113 58.3978669 -8.82135119 56.61215648 -8.75585938 53.49002075 C-8.73883972 52.33227142 -8.72182007 51.17452209 -8.70428467 49.98168945 C-8.67006409 48.73163116 -8.63584351 47.48157288 -8.60058594 46.19363403 C-8.57651672 44.91287994 -8.55244751 43.63212585 -8.52764893 42.31256104 C-8.47611192 39.60384302 -8.41461508 36.89560474 -8.34521484 34.18728638 C-8.25622907 30.70919623 -8.18483469 27.2310389 -8.11993027 23.75242424 C-8.05728296 20.44101521 -7.98531545 17.12984886 -7.91308594 13.81863403 C-7.88696228 12.56452728 -7.86083862 11.31042053 -7.83392334 10.01831055 C-7.80429504 8.86686554 -7.77466675 7.71542053 -7.74414062 6.52908325 C-7.71954773 5.50998871 -7.69495483 4.49089417 -7.6696167 3.44091797 C-7.30036056 -1.32359787 -4.05251864 0.01525152 0 0 Z " fill="#004487" transform="translate(441.4912109375,449.8610534667969)"/>
<path d="M0 0 C0.66 0.33 1.32 0.66 2 1 C2 5.29 2 9.58 2 14 C-6.91 14 -15.82 14 -25 14 C-25 17.63 -25 21.26 -25 25 C-23.28103516 24.87431641 -23.28103516 24.87431641 -21.52734375 24.74609375 C-19.99742154 24.64284747 -18.4674721 24.54000433 -16.9375 24.4375 C-16.18533203 24.38142578 -15.43316406 24.32535156 -14.65820312 24.26757812 C-9.92140498 23.95999383 -5.67457788 24.16192827 -1 25 C-1 28.63 -1 32.26 -1 36 C-3.475 36.495 -3.475 36.495 -6 37 C-6.99 37.33 -7.98 37.66 -9 38 C-9 37.34 -9 36.68 -9 36 C-14.28 36 -19.56 36 -25 36 C-25 40.29 -25 44.58 -25 49 C-15.76 49 -6.52 49 3 49 C4 60 4 60 3 62 C-11.19 62 -25.38 62 -40 62 C-41.31857548 59.36284904 -41.11991704 57.4016736 -41.11352539 54.44873047 C-41.11344986 53.28767792 -41.11337433 52.12662537 -41.11329651 50.9303894 C-41.10813522 49.67203278 -41.10297394 48.41367615 -41.09765625 47.1171875 C-41.0962413 45.83264679 -41.09482635 44.54810608 -41.09336853 43.22463989 C-41.08954911 39.80843158 -41.07972373 36.39226574 -41.06866455 32.97607422 C-41.05843807 29.49056574 -41.05386826 26.0050504 -41.04882812 22.51953125 C-41.03810096 15.67967005 -41.02103142 8.83983706 -41 2 C-37.53627798 0.84542599 -34.82484064 0.87051443 -31.171875 0.8671875 C-30.17102875 0.86575241 -30.17102875 0.86575241 -29.14996338 0.86428833 C-27.7378327 0.86360833 -26.32569888 0.86545007 -24.91357422 0.86962891 C-22.77173665 0.87494604 -20.63011202 0.86969539 -18.48828125 0.86328125 C-17.11197871 0.86394272 -15.7356763 0.86522531 -14.359375 0.8671875 C-13.11639648 0.86831543 -11.87341797 0.86944336 -10.59277344 0.87060547 C-6.99688306 1.00011226 -3.54972561 1.42586353 0 2 C0 1.34 0 0.68 0 0 Z " fill="#009AB4" transform="translate(889,449)"/>
<path d="M0 0 C-0.33 4.95 -0.66 9.9 -1 15 C-1.66 15 -2.32 15 -3 15 C-3 14.34 -3 13.68 -3 13 C-14.90921797 9.5131862 -14.90921797 9.5131862 -27 11 C-27.33 11.99 -27.66 12.98 -28 14 C-24.0659519 18.90977507 -19.29094438 19.56115751 -13.46289062 20.97851562 C-7.08599924 22.65902737 -2.08800765 25.1710864 1.9375 30.625 C3.80632169 36.56125714 3.75472039 42.33332127 2.0625 48.3125 C-2.3659792 54.0829426 -7.76636576 57.06014434 -14.875 58.4375 C-25.85145057 59.77134716 -34.05059486 57.70556508 -44 53 C-43.71812064 51.20676747 -43.4241719 49.41542874 -43.125 47.625 C-42.96257813 46.62726563 -42.80015625 45.62953125 -42.6328125 44.6015625 C-42 42 -42 42 -40 40 C-39.50113281 40.27714844 -39.00226562 40.55429687 -38.48828125 40.83984375 C-31.96865451 44.12891936 -25.32007591 45.521508 -18 45 C-15.16762903 43.62036385 -15.16762903 43.62036385 -13 42 C-13.11173521 39.55093214 -13.11173521 39.55093214 -14 37 C-16.17891667 35.65697663 -16.17891667 35.65697663 -18.9375 34.9375 C-23.70970972 33.41313053 -28.29186245 31.68200611 -32.90625 29.734375 C-35.10201845 28.83451115 -35.10201845 28.83451115 -38 29 C-38 28.01 -38 27.02 -38 26 C-38.66 26 -39.32 26 -40 26 C-43.38585213 20.45951469 -44.62443993 16.79576227 -43.59375 10.32421875 C-42.18339586 4.80342457 -39.43808325 2.03623136 -34.6875 -0.8125 C-23.69483657 -6.35337249 -11.20196951 -3.84545222 0 0 Z " fill="#0093AC" transform="translate(838,453)"/>
<path d="M0 0 C-0.280828 1.98073365 -0.57496614 3.95958448 -0.875 5.9375 C-1.03742187 7.03964844 -1.19984375 8.14179688 -1.3671875 9.27734375 C-1.57601562 10.17582031 -1.78484375 11.07429688 -2 12 C-2.99 12.495 -2.99 12.495 -4 13 C-5.73173793 12.41983864 -7.43734883 11.76059526 -9.125 11.0625 C-14.81845272 8.93209462 -19.2029421 7.65663656 -25.1640625 9.765625 C-29.00492995 11.52544063 -31.91171009 13.19194192 -34 17 C-36.0509828 23.15294839 -35.85171714 30.44484857 -33.8125 36.5625 C-31.24681905 40.01289851 -28.8325549 42.40565787 -24.6875 43.75 C-17.99673392 44.37239685 -13.24938356 44.05286168 -6.98046875 41.65625 C-5 41 -5 41 -2 41 C-1.58305004 42.59880813 -1.19209144 44.20441261 -0.8125 45.8125 C-0.48185547 47.15248047 -0.48185547 47.15248047 -0.14453125 48.51953125 C0 51 0 51 -1.26391602 52.55126953 C-6.59848224 57.0028679 -13.22630548 57.52796327 -19.875 57.4375 C-20.66438965 57.42920166 -21.4537793 57.42090332 -22.26708984 57.41235352 C-31.57762081 57.14324642 -38.46616297 54.41391491 -45.30859375 48 C-51.84240126 40.27411213 -52.67344063 30.70978951 -52 21 C-50.35338019 12.6891079 -46.53661161 5.45244285 -39.5 0.625 C-28.01884356 -6.61136269 -11.63219277 -7.75479518 0 0 Z " fill="#014380" transform="translate(668,454)"/>
<path d="M0 0 C2.97 0.495 2.97 0.495 6 1 C5.34 1.33 4.68 1.66 4 2 C4.06493652 3.26303955 4.12987305 4.5260791 4.19677734 5.82739258 C5.12167672 25.318655 5.41552153 44.82391448 5.5483284 64.33485222 C5.58462592 69.57105126 5.63903207 74.80576552 5.73388672 80.04125977 C5.82655691 85.1795654 5.87531368 90.31654357 5.89283371 95.45563698 C5.90688883 97.39624281 5.93643995 99.33680356 5.98213577 101.27692223 C6.31947967 116.28084347 6.31947967 116.28084347 3.13421631 120.43093872 C0.80015608 122.02732224 -1.3486176 123.03864373 -4 124 C-4.99386719 124.57556641 -5.98773438 125.15113281 -7.01171875 125.74414062 C-7.89472656 126.21013672 -8.77773438 126.67613281 -9.6875 127.15625 C-10.70328125 127.69668945 -11.7190625 128.23712891 -12.765625 128.79394531 C-13.83296875 129.35694336 -14.9003125 129.91994141 -16 130.5 C-18.31342594 131.73263876 -20.62590178 132.96706207 -22.9375 134.203125 C-23.81643921 134.67295807 -23.81643921 134.67295807 -24.71313477 135.15228271 C-30.85176811 138.44174086 -36.92939274 141.83710103 -43 145.25 C-44.03108887 145.8284668 -45.06217773 146.40693359 -46.12451172 147.00292969 C-50.86455381 149.66498944 -55.59756654 152.33862763 -60.3203125 155.03125 C-61.13757813 155.49370117 -61.95484375 155.95615234 -62.796875 156.43261719 C-64.28737905 157.27602741 -65.77469116 158.1251193 -67.2578125 158.98144531 C-70.27463066 160.6828247 -72.88130622 161.96739496 -76.2421875 162.890625 C-79.87325309 163.96258199 -82.86774626 165.35768722 -86.23486328 167.06933594 C-87.3147049 167.61620056 -88.39454651 168.16306519 -89.5071106 168.72650146 C-90.3297641 169.14675598 -91.1524176 169.5670105 -92 170 C-92.13148082 158.80256897 -92.26194298 147.60512656 -92.39115143 136.40766907 C-92.45119723 131.20666937 -92.51157672 126.00567402 -92.57275391 120.8046875 C-92.63192505 115.77315172 -92.69017382 110.74160599 -92.74781799 105.71005249 C-92.76982153 103.80300525 -92.79214171 101.89596164 -92.81480408 99.98892212 C-92.84680982 97.29080091 -92.87787737 94.59267185 -92.90820312 91.89453125 C-92.9177578 91.04675613 -92.92731247 90.19898102 -92.93715668 89.32551575 C-93.00603896 82.68413068 -93.00112478 76.04463457 -92.9588623 69.40307617 C-93.01728397 64.57020045 -93.43084199 59.79718891 -94 55 C-97.96 54.505 -97.96 54.505 -102 54 C-102 53.67 -102 53.34 -102 53 C-100.54263913 52.80508548 -99.08405407 52.61930642 -97.625 52.4375 C-96.40683594 52.28087891 -96.40683594 52.28087891 -95.1640625 52.12109375 C-93 52 -93 52 -91 53 C-90.67 69.5 -90.34 86 -90 103 C-87.03 102.505 -87.03 102.505 -84 102 C-83.67 102.99 -83.34 103.98 -83 105 C-82.04287109 104.76603516 -82.04287109 104.76603516 -81.06640625 104.52734375 C-80.24011719 104.33269531 -79.41382813 104.13804687 -78.5625 103.9375 C-77.73878906 103.74027344 -76.91507813 103.54304687 -76.06640625 103.33984375 C-75.04353516 103.17162109 -75.04353516 103.17162109 -74 103 C-73 104 -73 104 -72.87974548 106.20826721 C-72.8830764 107.67053993 -72.8830764 107.67053993 -72.88647461 109.16235352 C-72.88655014 110.26341934 -72.88662567 111.36448517 -72.88670349 112.49891663 C-72.89186478 113.6968132 -72.89702606 114.89470978 -72.90234375 116.12890625 C-72.9037587 117.34827377 -72.90517365 118.5676413 -72.90663147 119.82395935 C-72.91225033 123.7368307 -72.92480604 127.64964581 -72.9375 131.5625 C-72.94251257 134.20768147 -72.9470759 136.85286383 -72.95117188 139.49804688 C-72.96222589 145.99871726 -72.97898236 152.49935461 -73 159 C-51.76287836 147.86912861 -51.76287836 147.86912861 -30.7824707 136.26757812 C-23.58636648 132.16178261 -16.27786501 128.26088436 -8.98046875 124.33886719 C-7.99046875 123.80551758 -7.00046875 123.27216797 -5.98046875 122.72265625 C-5.09254639 122.24578369 -4.20462402 121.76891113 -3.28979492 121.27758789 C-0.83885025 119.94961872 -0.83885025 119.94961872 2 118 C2.46221936 115.85058915 2.46221936 115.85058915 2.39872742 113.31771851 C2.41753464 111.83691048 2.41753464 111.83691048 2.4367218 110.32618713 C2.43456917 108.69591835 2.43456917 108.69591835 2.43237305 107.03271484 C2.4425647 105.89125504 2.45275635 104.74979523 2.46325684 103.57374573 C2.49354534 99.78609409 2.50267713 95.99869466 2.51171875 92.2109375 C2.52855364 89.59061838 2.54670225 86.97030739 2.56611633 84.3500061 C2.6098386 78.14876383 2.63835023 71.94754797 2.66143972 65.7461983 C2.68846084 58.68695765 2.73237413 51.627854 2.77772844 44.56871104 C2.87065658 30.04588759 2.94229981 15.52300557 3 1 C2.01 0.67 1.02 0.34 0 0 Z " fill="#015784" transform="translate(320,414)"/>
<path d="M0 0 C0.87738327 -0.00315216 1.75476654 -0.00630432 2.65873718 -0.009552 C3.59740128 -0.00752777 4.53606537 -0.00550354 5.50317383 -0.00341797 C6.47176834 -0.00437469 7.44036285 -0.00533142 8.43830872 -0.00631714 C10.4816596 -0.00699679 12.52501266 -0.00515749 14.56835938 -0.00097656 C17.70878898 0.00439211 20.84907669 -0.00093775 23.98950195 -0.00732422 C25.97322623 -0.00666374 27.95695042 -0.00538321 29.94067383 -0.00341797 C31.35777901 -0.00645432 31.35777901 -0.00645432 32.80351257 -0.009552 C33.67143936 -0.00639984 34.53936615 -0.00324768 35.43359375 0 C36.20096359 0.00079559 36.96833344 0.00159119 37.75895691 0.00241089 C39.52270508 0.12939453 39.52270508 0.12939453 40.52270508 1.12939453 C40.62121679 2.96055336 40.65243137 4.79559386 40.64770508 6.62939453 C40.65157227 8.12986328 40.65157227 8.12986328 40.65551758 9.66064453 C40.52270508 12.12939453 40.52270508 12.12939453 39.52270508 13.12939453 C34.24270508 13.12939453 28.96270508 13.12939453 23.52270508 13.12939453 C23.52270508 28.96939453 23.52270508 44.80939453 23.52270508 61.12939453 C10.52270508 62.12939453 10.52270508 62.12939453 7.52270508 60.12939453 C7.24280808 57.32409808 7.15089095 54.74276942 7.19458008 51.93798828 C7.19645325 51.11871353 7.19832642 50.29943878 7.20025635 49.45533752 C7.20698915 47.71603344 7.22092791 45.97674481 7.24145508 44.23754883 C7.27229733 41.60174145 7.28239711 38.96653546 7.28833008 36.33056641 C7.29751403 34.6371999 7.30789418 32.94383937 7.31958008 31.25048828 C7.32382996 30.47201035 7.32807983 29.69353241 7.3324585 28.89146423 C7.40019624 23.57785013 7.86871097 18.40361453 8.52270508 13.12939453 C2.91270508 13.12939453 -2.69729492 13.12939453 -8.47729492 13.12939453 C-9.60229492 4.50439453 -9.60229492 4.50439453 -8.47729492 1.12939453 C-5.67493287 0.06135515 -2.97529437 0.00307516 0 0 Z " fill="#004487" transform="translate(489.477294921875,449.87060546875)"/>
<path d="M0 0 C0 19.8 0 39.6 0 60 C-1.65 60 -3.3 60 -5 60 C-5.99 60.66 -6.98 61.32 -8 62 C-8.33 61.34 -8.66 60.68 -9 60 C-9.99 60 -10.98 60 -12 60 C-12 59.34 -12 58.68 -12 58 C-14.97 58.495 -14.97 58.495 -18 59 C-18 43.49 -18 27.98 -18 12 C-18.66 11.67 -19.32 11.34 -20 11 C-4.01030928 0 -4.01030928 0 0 0 Z " fill="#0094B3" transform="translate(247,455)"/>
<path d="M0 0 C2.03904528 3.37018896 2.22017359 5.87201504 2.13525391 9.77832031 C2.11508209 10.9392218 2.09491028 12.10012329 2.0741272 13.29620361 C2.02583267 15.1682547 2.02583267 15.1682547 1.9765625 17.078125 C1.95153656 18.35983582 1.92651062 19.64154663 1.90072632 20.96209717 C1.83422398 24.36205972 1.75529995 27.76162399 1.67376709 31.16125488 C1.59270123 34.63338996 1.52341204 38.10575796 1.453125 41.578125 C1.31359417 48.38569818 1.15984805 55.19287389 1 62 C-3.95 62 -8.9 62 -14 62 C-14 41.87 -14 21.74 -14 1 C-7.07 1.495 -7.07 1.495 0 2 C0 1.34 0 0.68 0 0 Z " fill="#003D79" transform="translate(607,449)"/>
<path d="M0 0 C0.66 0.33 1.32 0.66 2 1 C2 5.29 2 9.58 2 14 C-6.91 14 -15.82 14 -25 14 C-25 17.63 -25 21.26 -25 25 C-19.72 25 -14.44 25 -9 25 C-9 25.33 -9 25.66 -9 26 C-14.61 26 -20.22 26 -26 26 C-27.31164842 23.37670316 -27.13262846 21.36301375 -27.125 18.4375 C-27.12886719 16.95056641 -27.12886719 16.95056641 -27.1328125 15.43359375 C-27 13 -27 13 -26 12 C-24.00035018 11.91241997 -21.9976389 11.89303424 -19.99609375 11.90234375 C-18.78115234 11.90556641 -17.56621094 11.90878906 -16.31445312 11.91210938 C-15.03505859 11.92048828 -13.75566406 11.92886719 -12.4375 11.9375 C-11.15423828 11.94201172 -9.87097656 11.94652344 -8.54882812 11.95117188 C-5.36583978 11.96300455 -2.18294238 11.97948932 1 12 C1 9.03 1 6.06 1 3 C-12.2 3 -25.4 3 -39 3 C-39 21.81 -39 40.62 -39 60 C-25.47 60 -11.94 60 2 60 C2 57.03 2 54.06 2 51 C-7.57 51 -17.14 51 -27 51 C-27 45.72 -27 40.44 -27 35 C-19.08 35 -11.16 35 -3 35 C-3 32.03 -3 29.06 -3 26 C-4.65 26 -6.3 26 -8 26 C-8 25.67 -8 25.34 -8 25 C-5.69 25 -3.38 25 -1 25 C-1 28.63 -1 32.26 -1 36 C-3.475 36.495 -3.475 36.495 -6 37 C-6.99 37.33 -7.98 37.66 -9 38 C-9 37.34 -9 36.68 -9 36 C-14.28 36 -19.56 36 -25 36 C-25 40.29 -25 44.58 -25 49 C-15.76 49 -6.52 49 3 49 C4 60 4 60 3 62 C-11.19 62 -25.38 62 -40 62 C-41.31857548 59.36284904 -41.11991704 57.4016736 -41.11352539 54.44873047 C-41.11344986 53.28767792 -41.11337433 52.12662537 -41.11329651 50.9303894 C-41.10813522 49.67203278 -41.10297394 48.41367615 -41.09765625 47.1171875 C-41.0962413 45.83264679 -41.09482635 44.54810608 -41.09336853 43.22463989 C-41.08954911 39.80843158 -41.07972373 36.39226574 -41.06866455 32.97607422 C-41.05843807 29.49056574 -41.05386826 26.0050504 -41.04882812 22.51953125 C-41.03810096 15.67967005 -41.02103142 8.83983706 -41 2 C-37.53627798 0.84542599 -34.82484064 0.87051443 -31.171875 0.8671875 C-30.17102875 0.86575241 -30.17102875 0.86575241 -29.14996338 0.86428833 C-27.7378327 0.86360833 -26.32569888 0.86545007 -24.91357422 0.86962891 C-22.77173665 0.87494604 -20.63011202 0.86969539 -18.48828125 0.86328125 C-17.11197871 0.86394272 -15.7356763 0.86522531 -14.359375 0.8671875 C-13.11639648 0.86831543 -11.87341797 0.86944336 -10.59277344 0.87060547 C-6.99688306 1.00011226 -3.54972561 1.42586353 0 2 C0 1.34 0 0.68 0 0 Z " fill="#046779" transform="translate(889,449)"/>
<path d="M0 0 C1.36560059 0.00303635 1.36560059 0.00303635 2.75878906 0.00613403 C3.68723633 0.00517731 4.61568359 0.00422058 5.57226562 0.00323486 C7.53938871 0.00255298 9.50651403 0.00440781 11.47363281 0.00857544 C14.49581932 0.01392358 17.51785721 0.00863071 20.54003906 0.00222778 C22.44628939 0.00288856 24.35253963 0.00416972 26.25878906 0.00613403 C27.16918945 0.0041098 28.07958984 0.00208557 29.01757812 0 C35.39383938 0.02399685 35.39383938 0.02399685 36.50878906 1.13894653 C36.50878906 5.09894653 36.50878906 9.05894653 36.50878906 13.13894653 C26.93878906 13.13894653 17.36878906 13.13894653 7.50878906 13.13894653 C7.50878906 16.10894653 7.50878906 19.07894653 7.50878906 22.13894653 C7.17878906 22.13894653 6.84878906 22.13894653 6.50878906 22.13894653 C6.50878906 18.50894653 6.50878906 14.87894653 6.50878906 11.13894653 C15.74878906 11.13894653 24.98878906 11.13894653 34.50878906 11.13894653 C34.50878906 8.16894653 34.50878906 5.19894653 34.50878906 2.13894653 C20.97878906 2.13894653 7.44878906 2.13894653 -6.49121094 2.13894653 C-6.49121094 20.94894653 -6.49121094 39.75894653 -6.49121094 59.13894653 C7.36878906 59.13894653 21.22878906 59.13894653 35.50878906 59.13894653 C35.50878906 56.16894653 35.50878906 53.19894653 35.50878906 50.13894653 C25.93878906 50.13894653 16.36878906 50.13894653 6.50878906 50.13894653 C6.50878906 44.85894653 6.50878906 39.57894653 6.50878906 34.13894653 C14.42878906 34.13894653 22.34878906 34.13894653 30.50878906 34.13894653 C30.50878906 34.46894653 30.50878906 34.79894653 30.50878906 35.13894653 C22.91878906 35.13894653 15.32878906 35.13894653 7.50878906 35.13894653 C7.83878906 36.12894653 8.16878906 37.11894653 8.50878906 38.13894653 C8.42417414 39.87218773 8.27274552 41.60287465 8.07128906 43.32644653 C7.96945312 44.22750122 7.86761719 45.12855591 7.76269531 46.05691528 C7.63701172 47.08752075 7.63701172 47.08752075 7.50878906 48.13894653 C8.38204834 48.13370972 9.25530762 48.1284729 10.1550293 48.12307739 C13.38468179 48.10606902 16.61431152 48.09351284 19.84399414 48.08401489 C21.24374135 48.07897574 22.64348326 48.07214437 24.04321289 48.06350708 C26.05124683 48.05142334 28.05931864 48.04624847 30.06738281 48.04129028 C31.8819397 48.03343506 31.8819397 48.03343506 33.7331543 48.02542114 C36.50878906 48.13894653 36.50878906 48.13894653 37.50878906 49.13894653 C37.58105408 50.99182155 37.59260126 52.84728531 37.57128906 54.70144653 C37.56226563 55.7133606 37.55324219 56.72527466 37.54394531 57.76785278 C37.53234375 58.55031372 37.52074219 59.33277466 37.50878906 60.13894653 C32.92072022 62.43985103 28.826939 62.44546822 23.81347656 62.43972778 C22.98421661 62.44401291 22.15495667 62.44829803 21.30056763 62.45271301 C19.55406607 62.45843854 17.80754068 62.45896971 16.06103516 62.45462036 C13.38565778 62.45144875 10.71137456 62.47498093 8.03613281 62.50027466 C6.33691546 62.50254663 4.63769513 62.50325162 2.93847656 62.50222778 C2.13844208 62.51143753 1.33840759 62.52064728 0.51412964 62.53013611 C-4.98450493 62.48412757 -4.98450493 62.48412757 -7.20901489 60.96873474 C-9.01051113 58.3978669 -8.82135119 56.61215648 -8.75585938 53.49002075 C-8.73883972 52.33227142 -8.72182007 51.17452209 -8.70428467 49.98168945 C-8.67006409 48.73163116 -8.63584351 47.48157288 -8.60058594 46.19363403 C-8.57651672 44.91287994 -8.55244751 43.63212585 -8.52764893 42.31256104 C-8.47611192 39.60384302 -8.41461508 36.89560474 -8.34521484 34.18728638 C-8.25622907 30.70919623 -8.18483469 27.2310389 -8.11993027 23.75242424 C-8.05728296 20.44101521 -7.98531545 17.12984886 -7.91308594 13.81863403 C-7.88696228 12.56452728 -7.86083862 11.31042053 -7.83392334 10.01831055 C-7.80429504 8.86686554 -7.77466675 7.71542053 -7.74414062 6.52908325 C-7.71954773 5.50998871 -7.69495483 4.49089417 -7.6696167 3.44091797 C-7.30036056 -1.32359787 -4.05251864 0.01525152 0 0 Z " fill="#032A50" transform="translate(441.4912109375,449.8610534667969)"/>
<path d="M0 0 C0.87738327 -0.00315216 1.75476654 -0.00630432 2.65873718 -0.009552 C3.59740128 -0.00752777 4.53606537 -0.00550354 5.50317383 -0.00341797 C6.47176834 -0.00437469 7.44036285 -0.00533142 8.43830872 -0.00631714 C10.4816596 -0.00699679 12.52501266 -0.00515749 14.56835938 -0.00097656 C17.70878898 0.00439211 20.84907669 -0.00093775 23.98950195 -0.00732422 C25.97322623 -0.00666374 27.95695042 -0.00538321 29.94067383 -0.00341797 C31.35777901 -0.00645432 31.35777901 -0.00645432 32.80351257 -0.009552 C33.67143936 -0.00639984 34.53936615 -0.00324768 35.43359375 0 C36.20096359 0.00079559 36.96833344 0.00159119 37.75895691 0.00241089 C39.52270508 0.12939453 39.52270508 0.12939453 40.52270508 1.12939453 C40.62121679 2.96055336 40.65243137 4.79559386 40.64770508 6.62939453 C40.65157227 8.12986328 40.65157227 8.12986328 40.65551758 9.66064453 C40.52270508 12.12939453 40.52270508 12.12939453 39.52270508 13.12939453 C34.24270508 13.12939453 28.96270508 13.12939453 23.52270508 13.12939453 C23.52270508 28.96939453 23.52270508 44.80939453 23.52270508 61.12939453 C10.52270508 62.12939453 10.52270508 62.12939453 7.52270508 60.12939453 C7.16625977 58.04150391 7.16625977 58.04150391 7.19458008 55.47314453 C7.19973633 54.53212891 7.20489258 53.59111328 7.21020508 52.62158203 C7.23083008 51.63416016 7.25145508 50.64673828 7.27270508 49.62939453 C7.27786133 48.67291016 7.28301758 47.71642578 7.28833008 46.73095703 C7.3560547 40.48336061 7.79223235 34.33331641 8.52270508 28.12939453 C8.85270508 28.12939453 9.18270508 28.12939453 9.52270508 28.12939453 C9.52270508 38.35939453 9.52270508 48.58939453 9.52270508 59.12939453 C13.48270508 59.12939453 17.44270508 59.12939453 21.52270508 59.12939453 C21.51746826 57.71086182 21.51223145 56.2923291 21.50683594 54.83081055 C21.48879199 49.58846666 21.4772753 44.34612553 21.46777344 39.10375977 C21.46273183 36.83096862 21.4558987 34.55818073 21.44726562 32.28540039 C21.43519247 29.02635902 21.42947521 25.76736036 21.42504883 22.50830078 C21.41988754 21.48539444 21.41472626 20.4624881 21.40940857 19.40858459 C21.40929527 17.99723488 21.40929527 17.99723488 21.40917969 16.55737305 C21.40695908 15.72464371 21.40473846 14.89191437 21.40245056 14.03395081 C21.52270508 12.12939453 21.52270508 12.12939453 22.52270508 11.12939453 C25.21925361 11.05619832 27.88961966 11.03696916 30.58520508 11.06689453 C31.723125 11.07366211 31.723125 11.07366211 32.8840332 11.08056641 C34.76362379 11.09238773 36.64317407 11.11032375 38.52270508 11.12939453 C38.52270508 8.15939453 38.52270508 5.18939453 38.52270508 2.12939453 C23.67270508 2.12939453 8.82270508 2.12939453 -6.47729492 2.12939453 C-6.47729492 5.09939453 -6.47729492 8.06939453 -6.47729492 11.12939453 C-1.19729492 11.12939453 4.08270508 11.12939453 9.52270508 11.12939453 C9.52270508 16.40939453 9.52270508 21.68939453 9.52270508 27.12939453 C6.85302469 21.79003376 7.75365516 18.97417394 8.52270508 13.12939453 C2.91270508 13.12939453 -2.69729492 13.12939453 -8.47729492 13.12939453 C-9.60229492 4.50439453 -9.60229492 4.50439453 -8.47729492 1.12939453 C-5.67493287 0.06135515 -2.97529437 0.00307516 0 0 Z " fill="#032E59" transform="translate(489.477294921875,449.87060546875)"/>
<path d="M0 0 C1.39798828 0.04060547 1.39798828 0.04060547 2.82421875 0.08203125 C9.07060779 0.35591818 14.37096519 1.02465276 19.33203125 5.1796875 C24.07827105 11.38501869 25.2861914 16.07000764 24.625 23.75 C24.09971243 26.48511806 23.40446442 29.07059107 22.625 31.75 C21.965 31.75 21.305 31.75 20.625 31.75 C20.625 32.41 20.625 33.07 20.625 33.75 C19.965 33.75 19.305 33.75 18.625 33.75 C18.934375 32.986875 19.24375 32.22375 19.5625 31.4375 C22.06558338 25.10617146 23.03510415 18.14124826 20.90625 11.51171875 C18.87925127 7.69474936 16.54910989 5.47277995 12.625 3.75 C8.53081216 2.72815234 4.56568056 2.55487557 0.35546875 2.43359375 C-1.51395386 2.37643188 -1.51395386 2.37643188 -3.42114258 2.31811523 C-4.99404053 2.27501221 -6.56693848 2.23190918 -8.1875 2.1875 C-15.7053125 1.9709375 -15.7053125 1.9709375 -23.375 1.75 C-23.375 20.56 -23.375 39.37 -23.375 58.75 C-19.415 58.75 -15.455 58.75 -11.375 58.75 C-11.375 52.15 -11.375 45.55 -11.375 38.75 C-8.075 38.75 -4.775 38.75 -1.375 38.75 C-0.5111871 40.20264038 0.34080454 41.6623163 1.1875 43.125 C1.66316406 43.93710937 2.13882813 44.74921875 2.62890625 45.5859375 C2.95761719 46.30007813 3.28632812 47.01421875 3.625 47.75 C3.295 48.41 2.965 49.07 2.625 49.75 C2.26148438 49.11191406 1.89796875 48.47382813 1.5234375 47.81640625 C1.02070312 46.99011719 0.51796875 46.16382813 0 45.3125 C-0.48726562 44.48878906 -0.97453125 43.66507812 -1.4765625 42.81640625 C-3.59955863 40.08032594 -3.59955863 40.08032594 -9.375 39.75 C-9.375 47.01 -9.375 54.27 -9.375 61.75 C-11.664375 61.605625 -13.95375 61.46125 -16.3125 61.3125 C-17.60027344 61.23128906 -18.88804687 61.15007812 -20.21484375 61.06640625 C-23.375 60.75 -23.375 60.75 -24.375 59.75 C-24.46881302 57.90881971 -24.49243954 56.06402359 -24.48852539 54.22045898 C-24.48844986 53.03931015 -24.48837433 51.85816132 -24.48829651 50.64122009 C-24.48313522 49.3558284 -24.47797394 48.07043671 -24.47265625 46.74609375 C-24.4712413 45.43794205 -24.46982635 44.12979034 -24.46836853 42.78199768 C-24.4645441 39.29837141 -24.45471446 35.81478661 -24.44366455 32.33117676 C-24.43344882 28.77873292 -24.42887056 25.22628241 -24.42382812 21.67382812 C-24.41309212 14.69920168 -24.3960166 7.72460283 -24.375 0.75 C-22.33015921 0.58004793 -20.28501194 0.41378141 -18.23974609 0.24902344 C-17.10088959 0.15602966 -15.96203308 0.06303589 -14.78866577 -0.03277588 C-9.8366421 -0.34789138 -4.95227959 -0.23180883 0 0 Z " fill="#022449" transform="translate(560.375,450.25)"/>
<path d="M0 0 C0.1536073 7.80565255 0.30178897 15.61138729 0.4429636 23.41727352 C0.5086825 27.04150485 0.57629966 30.6656804 0.64819336 34.28979492 C0.71745158 37.78452609 0.78180408 41.27931573 0.84269524 44.77420235 C0.87863704 46.76245142 0.91971453 48.75060547 0.96083069 50.73875427 C0.98092697 51.93992386 1.00102325 53.14109344 1.02172852 54.37866211 C1.04171402 55.44233505 1.06169952 56.506008 1.08229065 57.60191345 C1 60 1 60 0 61 C-1.76216345 61.28835402 -3.53611427 61.50633218 -5.3125 61.6875 C-6.27800781 61.79449219 -7.24351562 61.90148437 -8.23828125 62.01171875 C-11.24603949 61.99895599 -12.66519438 61.90738125 -15 60 C-15.87721326 56.02365648 -16.11949547 52.22615774 -16.09765625 48.1640625 C-16.09443359 47.10058594 -16.09121094 46.03710938 -16.08789062 44.94140625 C-16.07951172 43.84699219 -16.07113281 42.75257813 -16.0625 41.625 C-16.05798828 40.50738281 -16.05347656 39.38976562 -16.04882812 38.23828125 C-16.03709244 35.49213196 -16.02067363 32.74609414 -16 30 C-17.65 32.31 -19.3 34.62 -21 37 C-21.33 36.34 -21.66 35.68 -22 35 C-20.56640625 32.3984375 -20.56640625 32.3984375 -18.5625 29.375 C-17.57443359 27.87066406 -17.57443359 27.87066406 -16.56640625 26.3359375 C-16.04949219 25.56507813 -15.53257812 24.79421875 -15 24 C-14.34 24.33 -13.68 24.66 -13 25 C-13 36.22 -13 47.44 -13 59 C-9.04 59 -5.08 59 -1 59 C-1 40.19 -1 21.38 -1 2 C-4.96 2 -8.92 2 -13 2 C-13.66 3.65 -14.32 5.3 -15 7 C-15.754248 8.28093503 -16.54840182 9.53931038 -17.3828125 10.76953125 C-17.82753906 11.43017578 -18.27226562 12.09082031 -18.73046875 12.77148438 C-19.19066406 13.44501953 -19.65085937 14.11855469 -20.125 14.8125 C-20.59292969 15.50537109 -21.06085938 16.19824219 -21.54296875 16.91210938 C-22.69112437 18.61091105 -23.84499367 20.30584864 -25 22 C-25.33 21.34 -25.66 20.68 -26 20 C-24.6015625 17.50390625 -24.6015625 17.50390625 -22.625 14.5625 C-19.89488715 10.48814122 -19.89488715 10.48814122 -18 6 C-17.34 6 -16.68 6 -16 6 C-15.34 4.35 -14.68 2.7 -14 1 C-12.04175306 0.83232136 -10.08339945 0.66588795 -8.125 0.5 C-6.48917969 0.36078125 -6.48917969 0.36078125 -4.8203125 0.21875 C-3.21670436 0.09437042 -1.60842449 0 0 0 Z M-15 26 C-14 29 -14 29 -14 29 Z " fill="#03294E" transform="translate(425,450)"/>
<path d="M0 0 C0.66 0.33 1.32 0.66 2 1 C2 5.29 2 9.58 2 14 C-6.91 14 -15.82 14 -25 14 C-25 17.63 -25 21.26 -25 25 C-19.72 25 -14.44 25 -9 25 C-9 25.33 -9 25.66 -9 26 C-14.61 26 -20.22 26 -26 26 C-27.31164842 23.37670316 -27.13262846 21.36301375 -27.125 18.4375 C-27.12886719 16.95056641 -27.12886719 16.95056641 -27.1328125 15.43359375 C-27 13 -27 13 -26 12 C-24.00035018 11.91241997 -21.9976389 11.89303424 -19.99609375 11.90234375 C-18.78115234 11.90556641 -17.56621094 11.90878906 -16.31445312 11.91210938 C-15.03505859 11.92048828 -13.75566406 11.92886719 -12.4375 11.9375 C-11.15423828 11.94201172 -9.87097656 11.94652344 -8.54882812 11.95117188 C-5.36583978 11.96300455 -2.18294238 11.97948932 1 12 C1 9.03 1 6.06 1 3 C-12.2 3 -25.4 3 -39 3 C-39 21.81 -39 40.62 -39 60 C-37.02 60 -35.04 60 -33 60 C-33 60.33 -33 60.66 -33 61 C-35.64 61 -38.28 61 -41 61 C-41 41.53 -41 22.06 -41 2 C-37.53627798 0.84542599 -34.82484064 0.87051443 -31.171875 0.8671875 C-30.17102875 0.86575241 -30.17102875 0.86575241 -29.14996338 0.86428833 C-27.7378327 0.86360833 -26.32569888 0.86545007 -24.91357422 0.86962891 C-22.77173665 0.87494604 -20.63011202 0.86969539 -18.48828125 0.86328125 C-17.11197871 0.86394272 -15.7356763 0.86522531 -14.359375 0.8671875 C-13.11639648 0.86831543 -11.87341797 0.86944336 -10.59277344 0.87060547 C-6.99688306 1.00011226 -3.54972561 1.42586353 0 2 C0 1.34 0 0.68 0 0 Z " fill="#033D4A" transform="translate(889,449)"/>
<path d="M0 0 C1.36560059 0.00303635 1.36560059 0.00303635 2.75878906 0.00613403 C3.68723633 0.00517731 4.61568359 0.00422058 5.57226562 0.00323486 C7.53938871 0.00255298 9.50651403 0.00440781 11.47363281 0.00857544 C14.49581932 0.01392358 17.51785721 0.00863071 20.54003906 0.00222778 C22.44628939 0.00288856 24.35253963 0.00416972 26.25878906 0.00613403 C27.16918945 0.0041098 28.07958984 0.00208557 29.01757812 0 C35.39383938 0.02399685 35.39383938 0.02399685 36.50878906 1.13894653 C36.50878906 5.09894653 36.50878906 9.05894653 36.50878906 13.13894653 C26.93878906 13.13894653 17.36878906 13.13894653 7.50878906 13.13894653 C7.50878906 16.10894653 7.50878906 19.07894653 7.50878906 22.13894653 C7.17878906 22.13894653 6.84878906 22.13894653 6.50878906 22.13894653 C6.50878906 18.50894653 6.50878906 14.87894653 6.50878906 11.13894653 C15.74878906 11.13894653 24.98878906 11.13894653 34.50878906 11.13894653 C34.50878906 8.16894653 34.50878906 5.19894653 34.50878906 2.13894653 C20.97878906 2.13894653 7.44878906 2.13894653 -6.49121094 2.13894653 C-6.49121094 20.94894653 -6.49121094 39.75894653 -6.49121094 59.13894653 C-6.82121094 59.13894653 -7.15121094 59.13894653 -7.49121094 59.13894653 C-7.51433945 51.5939642 -7.53212863 44.04898553 -7.54302311 36.50397587 C-7.54825083 33.00085769 -7.55534644 29.49776369 -7.56665039 25.99465942 C-7.57955299 21.97113813 -7.58444005 17.94764239 -7.58886719 13.92410278 C-7.59660912 12.02882591 -7.59660912 12.02882591 -7.60450745 10.09526062 C-7.60458298 8.93413254 -7.60465851 7.77300446 -7.60473633 6.57669067 C-7.60806725 5.03447594 -7.60806725 5.03447594 -7.61146545 3.46110535 C-7.36262776 -1.34404184 -4.04775303 0.01523358 0 0 Z " fill="#031834" transform="translate(441.4912109375,449.8610534667969)"/>
<path d="M0 0 C0.66 0.33 1.32 0.66 2 1 C-13 12 -13 12 -28 23 C-24.55403883 23 -23.36834096 22.26602286 -20.4296875 20.55078125 C-19.5325 20.03193359 -18.6353125 19.51308594 -17.7109375 18.97851562 C-16.30714844 18.15383789 -16.30714844 18.15383789 -14.875 17.3125 C-12.13601749 15.72056313 -9.39619779 14.1300951 -6.65527344 12.54150391 C-4.89425192 11.51915287 -3.13702487 10.49023585 -1.38378906 9.45458984 C-0.5790918 8.98875488 0.22560547 8.52291992 1.0546875 8.04296875 C1.76866699 7.62426514 2.48264648 7.20556152 3.21826172 6.77416992 C3.80623535 6.51869385 4.39420898 6.26321777 5 6 C5.66 6.33 6.32 6.66 7 7 C-3.13416752 13.98643367 -13.6665925 19.98860559 -24.74438477 25.33544922 C-27.52061257 26.68748823 -29.79961722 27.79961722 -32 30 C-34.625 30.125 -34.625 30.125 -37 30 C-37 28.68 -37 27.36 -37 26 C-34.99446986 24.18502647 -33.09051019 22.70961707 -30.875 21.1875 C-30.22716553 20.72754639 -29.57933105 20.26759277 -28.91186523 19.79370117 C-26.6202361 18.17734335 -24.31211602 16.58691358 -22 15 C-21.05302246 14.34805664 -20.10604492 13.69611328 -19.13037109 13.02441406 C-12.77268761 8.65459707 -6.39443857 4.31582979 0 0 Z M-32 25 C-32.99 25.99 -33.98 26.98 -35 28 C-33.35 27.34 -31.7 26.68 -30 26 C-30.66 25.67 -31.32 25.34 -32 25 Z " fill="#022F5C" transform="translate(158,458)"/>
<path d="M0 0 C0.87738327 -0.00315216 1.75476654 -0.00630432 2.65873718 -0.009552 C3.59740128 -0.00752777 4.53606537 -0.00550354 5.50317383 -0.00341797 C6.47176834 -0.00437469 7.44036285 -0.00533142 8.43830872 -0.00631714 C10.4816596 -0.00699679 12.52501266 -0.00515749 14.56835938 -0.00097656 C17.70878898 0.00439211 20.84907669 -0.00093775 23.98950195 -0.00732422 C25.97322623 -0.00666374 27.95695042 -0.00538321 29.94067383 -0.00341797 C31.35777901 -0.00645432 31.35777901 -0.00645432 32.80351257 -0.009552 C33.67143936 -0.00639984 34.53936615 -0.00324768 35.43359375 0 C36.20096359 0.00079559 36.96833344 0.00159119 37.75895691 0.00241089 C39.52270508 0.12939453 39.52270508 0.12939453 40.52270508 1.12939453 C40.66580795 4.79855223 40.56492169 8.45654894 40.52270508 12.12939453 C34.58270508 12.12939453 28.64270508 12.12939453 22.52270508 12.12939453 C22.52270508 11.79939453 22.52270508 11.46939453 22.52270508 11.12939453 C27.80270508 11.12939453 33.08270508 11.12939453 38.52270508 11.12939453 C38.52270508 8.15939453 38.52270508 5.18939453 38.52270508 2.12939453 C23.67270508 2.12939453 8.82270508 2.12939453 -6.47729492 2.12939453 C-6.47729492 5.09939453 -6.47729492 8.06939453 -6.47729492 11.12939453 C-1.19729492 11.12939453 4.08270508 11.12939453 9.52270508 11.12939453 C9.52270508 16.40939453 9.52270508 21.68939453 9.52270508 27.12939453 C6.85302469 21.79003376 7.75365516 18.97417394 8.52270508 13.12939453 C2.91270508 13.12939453 -2.69729492 13.12939453 -8.47729492 13.12939453 C-9.60229492 4.50439453 -9.60229492 4.50439453 -8.47729492 1.12939453 C-5.67493287 0.06135515 -2.97529437 0.00307516 0 0 Z " fill="#031D3B" transform="translate(489.477294921875,449.87060546875)"/>
<path d="M0 0 C6.91376993 0.57614749 12.56962622 2.44499166 17.4375 7.5625 C20.76151976 12.74797083 20.43707864 18.03516209 20 24 C18.48408576 29.35623031 15.24793655 31.90048408 10.65234375 34.73828125 C1.70172144 38.99608833 -9.10219996 39.08723075 -18.35546875 35.8125 C-21.27378556 34.6082239 -24.14639079 33.34961273 -27 32 C-26.34 28.7 -25.68 25.4 -25 22 C-24.17189174 25.31243305 -23.90721572 27.65976579 -24 31 C-22.783125 31.474375 -21.56625 31.94875 -20.3125 32.4375 C-19.62800781 32.70433594 -18.94351563 32.97117187 -18.23828125 33.24609375 C-9.59330716 36.15792621 0.58710513 36.28806604 9.125 32.9921875 C12.66858974 31.11703793 15.21463481 28.57073038 17 25 C17.94864938 15.96760957 17.94864938 15.96760957 14.875 7.8125 C10.07497947 4.7864001 5.42273275 2.6784649 0 1 C0 0.67 0 0.34 0 0 Z " fill="#025E70" transform="translate(821,474)"/>
<path d="M0 0 C1.93166016 0.01740234 1.93166016 0.01740234 3.90234375 0.03515625 C5.19269531 0.04417969 6.48304688 0.05320312 7.8125 0.0625 C8.81152344 0.07410156 9.81054688 0.08570313 10.83984375 0.09765625 C10.83984375 0.75765625 10.83984375 1.41765625 10.83984375 2.09765625 C6.54984375 2.09765625 2.25984375 2.09765625 -2.16015625 2.09765625 C-2.16015625 20.90765625 -2.16015625 39.71765625 -2.16015625 59.09765625 C1.79984375 59.09765625 5.75984375 59.09765625 9.83984375 59.09765625 C9.83984375 48.20765625 9.83984375 37.31765625 9.83984375 26.09765625 C10.16984375 26.09765625 10.49984375 26.09765625 10.83984375 26.09765625 C10.83984375 37.64765625 10.83984375 49.19765625 10.83984375 61.09765625 C7.70342627 62.66586499 4.26804892 62.47928664 0.83984375 62.09765625 C-0.50596141 61.45653949 -1.84130809 60.79253879 -3.16015625 60.09765625 C-3.31376539 52.42239116 -3.46194711 44.7470378 -3.60311985 37.07153416 C-3.66883797 33.50783599 -3.7364548 29.94419457 -3.80834961 26.38061523 C-3.89084191 22.28768991 -3.96518581 18.19465246 -4.0390625 14.1015625 C-4.06609756 12.81617081 -4.09313263 11.53077911 -4.12098694 10.20643616 C-4.14108322 9.02528732 -4.1611795 7.84413849 -4.18188477 6.62719727 C-4.20187027 5.58128922 -4.22185577 4.53538116 -4.2424469 3.45777893 C-4.11561044 -0.17993205 -3.72055532 0.1149739 0 0 Z " fill="#001130" transform="translate(364.16015625,449.90234375)"/>
<path d="M0 0 C2.39652528 -0.08139142 4.79025436 -0.14067009 7.1875 -0.1875 C7.86103516 -0.21263672 8.53457031 -0.23777344 9.22851562 -0.26367188 C13.70864748 -0.32923478 16.39440999 0.33256351 20 3 C19.01 3.495 19.01 3.495 18 4 C17.34 3.67 16.68 3.34 16 3 C11.34005103 2.54741503 6.67317512 2.29738387 2 2 C2 6.95 2 11.9 2 17 C4.0625 16.896875 6.125 16.79375 8.25 16.6875 C9.41015625 16.62949219 10.5703125 16.57148438 11.765625 16.51171875 C15.16335027 15.97415593 16.6524318 15.48300483 19 13 C19.68850829 10.9683434 19.68850829 10.9683434 19.75 8.8125 C19.8325 7.554375 19.915 6.29625 20 5 C22 8 22 8 21.875 10.9375 C20.87906918 14.42325789 19.81264453 15.76642934 17 18 C13.60607349 19.13130884 10.94665128 19.1329194 7.375 19.125 C6.20710937 19.12757813 5.03921875 19.13015625 3.8359375 19.1328125 C1 19 1 19 0 18 C-0.08631874 16.65732587 -0.10706473 15.31025678 -0.09765625 13.96484375 C-0.09443359 13.15595703 -0.09121094 12.34707031 -0.08789062 11.51367188 C-0.07951172 10.66353516 -0.07113281 9.81339844 -0.0625 8.9375 C-0.05798828 8.08349609 -0.05347656 7.22949219 -0.04882812 6.34960938 C-0.03700373 4.23304337 -0.01906769 2.11651315 0 0 Z " fill="#022E59" transform="translate(549,461)"/>
<path d="M0 0 C1.12792969 -0.01417969 2.25585938 -0.02835937 3.41796875 -0.04296875 C7.77760525 0.25302498 11.40761788 0.963893 14.75 3.875 C16.36557076 7.39124223 15.94080805 9.53709161 14.8125 13.1875 C10.19247537 16.23251623 6.45536418 16.5445729 1 16.4375 C0.32001953 16.43234375 -0.35996094 16.4271875 -1.06054688 16.421875 C-6.03243731 16.34256269 -6.03243731 16.34256269 -7.1875 15.1875 C-7.28659302 12.85589945 -7.31720504 10.52120058 -7.3125 8.1875 C-7.31507813 6.90875 -7.31765625 5.63 -7.3203125 4.3125 C-7.09150093 -1.07130162 -4.85353661 0.02742111 0 0 Z M-5.1875 2.1875 C-5.1875 6.1475 -5.1875 10.1075 -5.1875 14.1875 C-2.58271117 14.2684313 0.01956653 14.32795434 2.625 14.375 C3.36298828 14.40013672 4.10097656 14.42527344 4.86132812 14.45117188 C9.06083757 14.54778496 9.06083757 14.54778496 12.796875 12.86328125 C14.41587267 10.1919351 14.25575562 8.22696708 13.8125 5.1875 C11.51228457 2.84912933 10.18914171 2.22541695 6.90234375 1.89453125 C5.34193359 1.94673828 5.34193359 1.94673828 3.75 2 C2.18572266 2.04060547 2.18572266 2.04060547 0.58984375 2.08203125 C-0.32667969 2.11683594 -1.24320313 2.15164063 -2.1875 2.1875 C-3.1775 2.1875 -4.1675 2.1875 -5.1875 2.1875 Z " fill="#037187" transform="translate(695.1875,459.8125)"/>
<path d="M0 0 C4.49805226 2.24902613 4.49805226 2.24902613 6.25390625 5.3359375 C6.63353516 5.98820312 7.01316406 6.64046875 7.40429688 7.3125 C7.78650391 7.993125 8.16871094 8.67375 8.5625 9.375 C11.86198018 15.48562453 11.86198018 15.48562453 16 21 C19.60465748 21.81314911 19.60465748 21.81314911 23 22 C23.268125 21.236875 23.53625 20.47375 23.8125 19.6875 C24.94424112 17.12619116 25.91223401 15.80307062 28 14 C26.72278474 18.99275057 24.82669043 21.57611908 21 25 C20.34 24.67 19.68 24.34 19 24 C18.67 24.66 18.34 25.32 18 26 C13.65086474 22.02700617 10.71958576 17.71261186 7.6875 12.6875 C6.140625 10.150625 4.59375 7.61375 3 5 C2.67 15.23 2.34 25.46 2 36 C1.67 36 1.34 36 1 36 C0.67 24.12 0.34 12.24 0 0 Z " fill="#053866" transform="translate(374,474)"/>
<path d="M0 0 C0.66 0.33 1.32 0.66 2 1 C0.35 2.32 -1.3 3.64 -3 5 C-2.64172119 5.52432617 -2.28344238 6.04865234 -1.91430664 6.58886719 C-0.29096567 8.97184004 1.32332905 11.36080713 2.9375 13.75 C3.50146484 14.575 4.06542969 15.4 4.64648438 16.25 C5.18466797 17.04921875 5.72285156 17.8484375 6.27734375 18.671875 C6.77484131 19.4050293 7.27233887 20.13818359 7.78491211 20.89355469 C8.97302448 22.95323593 9.55689098 24.67654755 10 27 C4.00947569 28.19810486 -2.60035858 29.45795218 -8 26 C-9.51953125 24.125 -9.51953125 24.125 -10.8125 22 C-11.25207031 21.29875 -11.69164062 20.5975 -12.14453125 19.875 C-12.42683594 19.25625 -12.70914063 18.6375 -13 18 C-12.67 17.34 -12.34 16.68 -12 16 C-11.16094435 17.12073862 -10.32892169 18.24674547 -9.5 19.375 C-8.80390625 20.31472656 -8.80390625 20.31472656 -8.09375 21.2734375 C-7 23 -7 23 -7 25 C-2.38 25 2.24 25 7 25 C5.37555164 22.39548778 3.75046461 19.79137787 2.125 17.1875 C1.66480469 16.44951172 1.20460938 15.71152344 0.73046875 14.95117188 C0.28574219 14.23896484 -0.15898438 13.52675781 -0.6171875 12.79296875 C-1.22989502 11.81106567 -1.22989502 11.81106567 -1.85498047 10.80932617 C-2.8792831 9.1907533 -3.93749584 7.59375623 -5 6 C-5 5.01 -5 4.02 -5 3 C-2.625 1.25 -2.625 1.25 0 0 Z " fill="#032B51" transform="translate(577,484)"/>
<path d="M0 0 C1.12591553 0.00523682 2.25183105 0.01047363 3.41186523 0.01586914 C4.62680664 0.0190918 5.84174805 0.02231445 7.09350586 0.02563477 C8.37290039 0.03401367 9.65229492 0.04239258 10.97045898 0.05102539 C12.2537207 0.05553711 13.53698242 0.06004883 14.85913086 0.06469727 C18.04211921 0.07652994 21.22501661 0.09301471 24.40795898 0.11352539 C24.73795898 0.77352539 25.06795898 1.43352539 25.40795898 2.11352539 C16.49795898 2.11352539 7.58795898 2.11352539 -1.59204102 2.11352539 C-1.59204102 5.74352539 -1.59204102 9.37352539 -1.59204102 13.11352539 C3.68795898 13.11352539 8.96795898 13.11352539 14.40795898 13.11352539 C14.40795898 13.44352539 14.40795898 13.77352539 14.40795898 14.11352539 C8.79795898 14.11352539 3.18795898 14.11352539 -2.59204102 14.11352539 C-3.90368943 11.49022855 -3.72466947 9.47653914 -3.71704102 6.55102539 C-3.71961914 5.55973633 -3.72219727 4.56844727 -3.72485352 3.54711914 C-3.54063631 0.17160981 -3.39172 0.14854948 0 0 Z " fill="#03687A" transform="translate(865.592041015625,460.886474609375)"/>
<path d="M0 0 C2.475 0.495 2.475 0.495 5 1 C5 4.96 5 8.92 5 13 C-4.57 13 -14.14 13 -24 13 C-24 15.97 -24 18.94 -24 22 C-24.33 22 -24.66 22 -25 22 C-25 18.37 -25 14.74 -25 11 C-15.76 11 -6.52 11 3 11 C3.01512945 2.59866609 3.01512945 2.59866609 0 0 Z " fill="#032D55" transform="translate(473,450)"/>
<path d="M0 0 C-0.33 4.95 -0.66 9.9 -1 15 C-1.66 15 -2.32 15 -3 15 C-3 14.34 -3 13.68 -3 13 C-10.32940833 10.99763587 -17.40935336 9.48701051 -25 9 C-25 8.67 -25 8.34 -25 8 C-16.97333961 7.62762916 -10.59038233 8.32104153 -3 11 C-2.34 7.7 -1.68 4.4 -1 1 C-9.69869878 -0.78740386 -18.14891498 -1.5460982 -27 -2 C-19.28732116 -6.82508169 -7.92553538 -2.72070617 0 0 Z " fill="#056172" transform="translate(838,453)"/>
<path d="M0 0 C0 16.17 0 32.34 0 49 C-2.15485338 44.69029323 -2.22386516 42.72427056 -2.16015625 37.99609375 C-2.15495468 37.31756851 -2.14975311 36.63904327 -2.14439392 35.93995667 C-2.12663946 33.77224986 -2.09555696 31.6050232 -2.0625 29.4375 C-2.0255786 26.60289998 -1.99525559 23.7683445 -1.97265625 20.93359375 C-1.96706696 20.25106537 -1.96147766 19.56853699 -1.95571899 18.86532593 C-1.9388669 13.1972903 -2.32036644 7.6240616 -3 2 C-5.64 1.67 -8.28 1.34 -11 1 C-11 0.67 -11 0.34 -11 0 C-3.375 -1.125 -3.375 -1.125 0 0 Z " fill="#026484" transform="translate(229,467)"/>
<path d="M0 0 C7.92 0 15.84 0 24 0 C28 10 28 10 28 13 C32.95 13 37.9 13 43 13 C43 13.33 43 13.66 43 14 C37.72 14 32.44 14 27 14 C24.125 6.375 24.125 6.375 23 3 C15.08 2.67 7.16 2.34 -1 2 C-0.67 1.34 -0.34 0.68 0 0 Z " fill="#056375" transform="translate(748,496)"/>
<path d="M0 0 C-1.46759766 0.05607422 -1.46759766 0.05607422 -2.96484375 0.11328125 C-14.35489144 0.68446358 -22.51999511 1.62900057 -31.05078125 9.7578125 C-35.98952926 15.4388573 -37.46510871 21.64524478 -38 29 C-38.33 29 -38.66 29 -39 29 C-39.97940761 20.63876094 -38.00149966 14.75361738 -33 8 C-25.38910951 0.43523612 -9.89519498 -6.59679666 0 0 Z " fill="#042B51" transform="translate(656,451)"/>
<path d="M0 0 C1 2 1 2 0.48681641 3.84765625 C0.19468262 4.57855469 -0.09745117 5.30945313 -0.3984375 6.0625 C-0.71296875 6.85914063 -1.0275 7.65578125 -1.3515625 8.4765625 C-1.68929687 9.30929687 -2.02703125 10.14203125 -2.375 11 C-2.705 11.83273437 -3.035 12.66546875 -3.375 13.5234375 C-5.76971726 19.53943452 -5.76971726 19.53943452 -7 22 C-2.71 22 1.58 22 6 22 C6.33 20.35 6.66 18.7 7 17 C7.63437344 15.3207762 8.29289322 13.64991582 9 12 C10.08044218 15.22682396 10.02149752 17.05525031 8.6875 20.1875 C7.26724798 22.85419698 6.56282255 23.80386487 3.6796875 24.80859375 C-0.95736906 25.36919313 -4.83149967 25.36215019 -9 23 C-2.35 2.35 -2.35 2.35 0 0 Z " fill="#045F73" transform="translate(737,487)"/>
<path d="M0 0 C0.66 0.33 1.32 0.66 2 1 C2 3.97 2 6.94 2 10 C7.28 10 12.56 10 18 10 C18 15.28 18 20.56 18 26 C15.33031961 20.66063922 16.23095008 17.84477941 17 12 C11.39 12 5.78 12 0 12 C-1.125 3.375 -1.125 3.375 0 0 Z " fill="#022C56" transform="translate(481,451)"/>
<path d="M0 0 C0.33 0 0.66 0 1 0 C1 11.55 1 23.1 1 35 C-2.16986168 36.58493084 -5.54032261 36.2940042 -9 36 C-11.5 35 -11.5 35 -13 34 C-13 32.35 -13 30.7 -13 29 C-12.67 30.32 -12.34 31.64 -12 33 C-8.04 33 -4.08 33 0 33 C0 22.11 0 11.22 0 0 Z " fill="#001F44" transform="translate(374,476)"/>
<path d="M0 0 C1.0725 0.474375 2.145 0.94875 3.25 1.4375 C5.80839865 2.53766332 8.25835017 3.45167003 11 4 C9.48991143 7.9192472 7.21311928 9.56879278 3.8125 11.9375 C2.33716797 12.97003906 2.33716797 12.97003906 0.83203125 14.0234375 C-0.10253906 14.67570312 -1.03710938 15.32796875 -2 16 C-3.33385692 17.0201491 -4.66729108 18.04085162 -6 19.0625 C-6.99 19.701875 -7.98 20.34125 -9 21 C-9.99 20.67 -10.98 20.34 -12 20 C-5.73 15.71 0.54 11.42 7 7 C4.49183541 4.49183541 3.09162264 3.38589981 0 2 C0 1.34 0 0.68 0 0 Z " fill="#023261" transform="translate(252,411)"/>
<path d="M0 0 C0.66 0.33 1.32 0.66 2 1 C2 12.22 2 23.44 2 35 C1.67 35 1.34 35 1 35 C0.67 25.1 0.34 15.2 0 5 C-1.98 7.64 -3.96 10.28 -6 13 C-6.33 12.34 -6.66 11.68 -7 11 C-5.56640625 8.3984375 -5.56640625 8.3984375 -3.5625 5.375 C-2.90378906 4.37210937 -2.24507813 3.36921875 -1.56640625 2.3359375 C-1.04949219 1.56507813 -0.53257812 0.79421875 0 0 Z " fill="#021C3D" transform="translate(410,474)"/>
<path d="M0 0 C0.66 0.33 1.32 0.66 2 1 C1.67 1.66 1.34 2.32 1 3 C1.86625 3.309375 1.86625 3.309375 2.75 3.625 C6.08037172 5.66022716 7.26984123 7.47789108 9 11 C9.93045148 16.66807142 9.90864519 21.40956998 6.5 26.1875 C5.675 27.115625 4.85 28.04375 4 29 C3.34 28.67 2.68 28.34 2 28 C2.66 27.34 3.32 26.68 4 26 C4.6425235 23.93125966 4.6425235 23.93125966 5 22 C5.66 22 6.32 22 7 22 C7.34374637 16.27089389 7.43059308 11.86922889 4 7 C1.75436712 5.11366838 -0.52066478 3.59051693 -3 2 C-2.01 1.34 -1.02 0.68 0 0 Z " fill="#025D70" transform="translate(717,477)"/>
<path d="M0 0 C2.31 0 4.62 0 7 0 C7 3.63 7 7.26 7 11 C5.35 11.33 3.7 11.66 2 12 C1.01 12.33 0.02 12.66 -1 13 C-1 12.34 -1 11.68 -1 11 C-6.28 11 -11.56 11 -17 11 C-17 10.67 -17 10.34 -17 10 C-9.74 10 -2.48 10 5 10 C5 7.03 5 4.06 5 1 C3.35 1 1.7 1 0 1 C0 0.67 0 0.34 0 0 Z " fill="#045868" transform="translate(881,474)"/>
<path d="M0 0 C7.75 0.75 7.75 0.75 10 3 C11.06433568 7.70081591 11.22532845 10.68024478 9 15 C4.32307692 13.52307692 4.32307692 13.52307692 2.6875 10.875 C2.460625 10.25625 2.23375 9.6375 2 9 C3.98 9.66 5.96 10.32 8 11 C8 8.36 8 5.72 8 3 C5.36 2.34 2.72 1.68 0 1 C0 0.67 0 0.34 0 0 Z " fill="#065388" transform="translate(656,452)"/>
<path d="M0 0 C0.99 0 1.98 0 3 0 C3.33 0.99 3.66 1.98 4 3 C5.5365114 4.18813322 5.5365114 4.18813322 7.45703125 5.15625 C8.15763672 5.53910156 8.85824219 5.92195312 9.58007812 6.31640625 C10.31677734 6.70699219 11.05347656 7.09757813 11.8125 7.5 C20.66346658 12.26772067 20.66346658 12.26772067 24 15 C18.80771145 14.42770367 14.6896297 11.9017839 10.1875 9.4375 C9.00510742 8.80038086 9.00510742 8.80038086 7.79882812 8.15039062 C5.8626622 7.10603446 3.92994633 6.0557923 2 5 C2 3.68 2 2.36 2 1 C1.34 0.67 0.68 0.34 0 0 Z " fill="#03264B" transform="translate(97,528)"/>
<path d="M0 0 C0.82810826 3.31243305 1.09278428 5.65976579 1 9 C5.96260257 10.91539047 10.86626838 12.60961435 16 14 C16 14.33 16 14.66 16 15 C9.07967951 14.56061457 4.22446422 13.0628316 -2 10 C-1.34 6.7 -0.68 3.4 0 0 Z " fill="#035F71" transform="translate(796,496)"/>
<path d="M0 0 C0.33 1.32 0.66 2.64 1 4 C-8.01653696 9.8618677 -8.01653696 9.8618677 -12 11 C-12.99 10.67 -13.98 10.34 -15 10 C-5.77448747 3.48063781 -5.77448747 3.48063781 0 2 C0 1.34 0 0.68 0 0 Z " fill="#003771" transform="translate(188,482)"/>
<path d="M0 0 C0.66 0.33 1.32 0.66 2 1 C2 2.65 2 4.3 2 6 C1.67 5.01 1.34 4.02 1 3 C-0.134375 3.474375 -1.26875 3.94875 -2.4375 4.4375 C-7.39812929 6.28782354 -13.20951309 8.21722963 -18.265625 6.01171875 C-18.83796875 5.67785156 -19.4103125 5.34398437 -20 5 C-18.58847656 4.83564453 -18.58847656 4.83564453 -17.1484375 4.66796875 C-15.90320313 4.50941406 -14.65796875 4.35085938 -13.375 4.1875 C-11.53035156 3.96126953 -11.53035156 3.96126953 -9.6484375 3.73046875 C-5.98106501 2.99620895 -3.30504064 1.69128913 0 0 Z " fill="#042E51" transform="translate(664,494)"/>
<path d="M0 0 C0.33 1.32 0.66 2.64 1 4 C5.29 4 9.58 4 14 4 C13.67 4.99 13.34 5.98 13 7 C11.58376784 7.05447047 10.16691809 7.09300508 8.75 7.125 C7.96109375 7.14820313 7.1721875 7.17140625 6.359375 7.1953125 C3.79268059 6.9828378 2.2083933 6.28654105 0 5 C0 3.35 0 1.7 0 0 Z " fill="#032D52" transform="translate(361,505)"/>
<path d="M0 0 C0 4.29 0 8.58 0 13 C-0.66 12.67 -1.32 12.34 -2 12 C-2 8.7 -2 5.4 -2 2 C-3.98 2 -5.96 2 -8 2 C-8 1.67 -8 1.34 -8 1 C-2.25 0 -2.25 0 0 0 Z " fill="#03305D" transform="translate(473,473)"/>
<path d="M0 0 C1.32 0.66 2.64 1.32 4 2 C3.01 2 2.02 2 1 2 C1 8.93 1 15.86 1 23 C0.67 23 0.34 23 0 23 C-0.19588601 19.3545658 -0.38030536 15.7086421 -0.5625 12.0625 C-0.61857422 11.02158203 -0.67464844 9.98066406 -0.73242188 8.90820312 C-0.78076172 7.91884766 -0.82910156 6.92949219 -0.87890625 5.91015625 C-0.9260376 4.99371338 -0.97316895 4.07727051 -1.02172852 3.13305664 C-1 1 -1 1 0 0 Z " fill="#054C5C" transform="translate(849,450)"/>
<path d="M0 0 C-0.33 4.29 -0.66 8.58 -1 13 C-1.33 13 -1.66 13 -2 13 C-2.33 9.37 -2.66 5.74 -3 2 C-5.64 1.67 -8.28 1.34 -11 1 C-11 0.67 -11 0.34 -11 0 C-3.375 -1.125 -3.375 -1.125 0 0 Z " fill="#07749B" transform="translate(229,467)"/>
<path d="M0 0 C4.29 0 8.58 0 13 0 C12.67 0.66 12.34 1.32 12 2 C8.61964088 2.62599243 5.43830115 3 2 3 C1.34 2.01 0.68 1.02 0 0 Z " fill="#037E97" transform="translate(689,460)"/>
<path d="M0 0 C3 0.75 3 0.75 6 2.75 C6 3.41 6 4.07 6 4.75 C5.278125 4.399375 4.55625 4.04875 3.8125 3.6875 C-0.32100718 2.30966427 -2.9721948 3.40739827 -7 4.75 C-5.64059859 0.67179578 -4.31741291 -0.35978441 0 0 Z " fill="#013668" transform="translate(268,425.25)"/>
<path d="M0 0 C1.0725 0.474375 2.145 0.94875 3.25 1.4375 C5.80839865 2.53766332 8.25835017 3.45167003 11 4 C9.63016497 7.16115776 9.0109362 7.9927092 6 10 C6.33 8.68 6.66 7.36 7 6 C3.535 4.02 3.535 4.02 0 2 C0 1.34 0 0.68 0 0 Z " fill="#02396B" transform="translate(252,411)"/>
<path d="M0 0 C0.66 0.33 1.32 0.66 2 1 C0.59023295 4.03852705 -1.08870228 6.5939595 -3.125 9.25 C-3.66382813 9.95640625 -4.20265625 10.6628125 -4.7578125 11.390625 C-5.16773438 11.92171875 -5.57765625 12.4528125 -6 13 C-6.33 12.34 -6.66 11.68 -7 11 C-5.56640625 8.3984375 -5.56640625 8.3984375 -3.5625 5.375 C-2.90378906 4.37210937 -2.24507813 3.36921875 -1.56640625 2.3359375 C-1.04949219 1.56507813 -0.53257812 0.79421875 0 0 Z " fill="#03305C" transform="translate(410,474)"/>
<path d="M0 0 C1.258125 0.12375 2.51625 0.2475 3.8125 0.375 C4.87404297 0.47941406 4.87404297 0.47941406 5.95703125 0.5859375 C8 1 8 1 11 3 C10.67 4.98 10.34 6.96 10 9 C9.67 9 9.34 9 9 9 C8.814375 8.05125 8.62875 7.1025 8.4375 6.125 C7.26599195 2.61628301 7.26599195 2.61628301 3.375 1.625 C2.26125 1.41875 1.1475 1.2125 0 1 C0 0.67 0 0.34 0 0 Z " fill="#05375C" transform="translate(657,451)"/>
<path d="M0 0 C0 0.33 0 0.66 0 1 C-1.72814161 1.19672365 -3.45759197 1.38196799 -5.1875 1.5625 C-6.15042969 1.66691406 -7.11335938 1.77132813 -8.10546875 1.87890625 C-10.94233377 1.99758751 -13.25423671 1.67765639 -16 1 C-16 0.67 -16 0.34 -16 0 C-10.42289352 -1.06795656 -5.60563042 -0.82622671 0 0 Z " fill="#01254F" transform="translate(464,474)"/>
<path d="M0 0 C1.93166016 0.01740234 1.93166016 0.01740234 3.90234375 0.03515625 C5.19269531 0.04417969 6.48304688 0.05320312 7.8125 0.0625 C8.81152344 0.07410156 9.81054688 0.08570313 10.83984375 0.09765625 C10.83984375 0.75765625 10.83984375 1.41765625 10.83984375 2.09765625 C6.54984375 2.09765625 2.25984375 2.09765625 -2.16015625 2.09765625 C-2.49015625 3.41765625 -2.82015625 4.73765625 -3.16015625 6.09765625 C-3.54234392 4.44150968 -3.87410727 2.77308601 -4.16015625 1.09765625 C-3.16015625 0.09765625 -3.16015625 0.09765625 0 0 Z " fill="#04203F" transform="translate(364.16015625,449.90234375)"/>
<path d="M0 0 C0.66 0 1.32 0 2 0 C1.49701212 4.40114397 -0.08772731 6.71195019 -3 10 C-3.66 9.67 -4.32 9.34 -5 9 C-4.34 8.34 -3.68 7.68 -3 7 C-2.3574765 4.93125966 -2.3574765 4.93125966 -2 3 C-1.34 3 -0.68 3 0 3 C0 2.01 0 1.02 0 0 Z " fill="#056B81" transform="translate(724,496)"/>
<path d="M0 0 C0.99 0.33 1.98 0.66 3 1 C1.73608512 2.00873016 0.46359117 3.00671822 -0.8125 4 C-1.87404297 4.8353125 -1.87404297 4.8353125 -2.95703125 5.6875 C-5 7 -5 7 -8 7 C-5.42215154 4.35247996 -3.08351902 2.05567935 0 0 Z " fill="#033C6F" transform="translate(134,475)"/>
<path d="M0 0 C2 1 2 1 2 1 Z " fill="#084578" transform="translate(478,511)"/>
<path d="" fill="#0D7C96" transform="translate(0,0)"/>
<path d="M0 0 C2 1 2 1 2 1 Z " fill="#0594AE" transform="translate(693,472)"/>
<path d="" fill="#0A84A3" transform="translate(0,0)"/>
<path d="" fill="#0E859F" transform="translate(0,0)"/>
<path d="" fill="#11426F" transform="translate(0,0)"/>
<path d="" fill="#0A4982" transform="translate(0,0)"/>
<path d="" fill="#0A8CAB" transform="translate(0,0)"/>
<path d="" fill="#0A88A0" transform="translate(0,0)"/>
<path d="" fill="#0C5386" transform="translate(0,0)"/>
<path d="" fill="#0C8A9E" transform="translate(0,0)"/>
<path d="" fill="#0A487E" transform="translate(0,0)"/>
<path d="" fill="#088BA3" transform="translate(0,0)"/>
<path d="" fill="#094D84" transform="translate(0,0)"/>
<path d="" fill="#0792A7" transform="translate(0,0)"/>
<path d="" fill="#098FA5" transform="translate(0,0)"/>
<path d="" fill="#0A8DA4" transform="translate(0,0)"/>
<path d="" fill="#078EA6" transform="translate(0,0)"/>
<path d="" fill="#0B92AA" transform="translate(0,0)"/>
<path d="" fill="#0E5C8D" transform="translate(0,0)"/>
<path d="" fill="#09487E" transform="translate(0,0)"/>
<path d="" fill="#0B487F" transform="translate(0,0)"/>
<path d="" fill="#035090" transform="translate(0,0)"/>
<path d="" fill="#0B95AB" transform="translate(0,0)"/>
<path d="" fill="#0A85A2" transform="translate(0,0)"/>
<path d="" fill="#0A8FA3" transform="translate(0,0)"/>
<path d="" fill="#064981" transform="translate(0,0)"/>
<path d="" fill="#0493AE" transform="translate(0,0)"/>
<path d="" fill="#0793AC" transform="translate(0,0)"/>
<path d="" fill="#0692A6" transform="translate(0,0)"/>
<path d="" fill="#0B91AA" transform="translate(0,0)"/>
<path d="" fill="#0495AA" transform="translate(0,0)"/>
<path d="" fill="#0D91A7" transform="translate(0,0)"/>
<path d="" fill="#0994A9" transform="translate(0,0)"/>
<path d="" fill="#0A95AB" transform="translate(0,0)"/>
<path d="" fill="#06508C" transform="translate(0,0)"/>
<path d="" fill="#0A8FA7" transform="translate(0,0)"/>
<path d="" fill="#0B95A9" transform="translate(0,0)"/>
<path d="" fill="#0B95AA" transform="translate(0,0)"/>
<path d="" fill="#0895AE" transform="translate(0,0)"/>
<path d="" fill="#0696AF" transform="translate(0,0)"/>
<path d="" fill="#064C82" transform="translate(0,0)"/>
<path d="" fill="#084E88" transform="translate(0,0)"/>
<path d="" fill="#064F8D" transform="translate(0,0)"/>
<path d="" fill="#084E86" transform="translate(0,0)"/>
<path d="" fill="#0796AA" transform="translate(0,0)"/>
<path d="" fill="#07548E" transform="translate(0,0)"/>
<path d="" fill="#0997AC" transform="translate(0,0)"/>
<path d="" fill="#0A8BA5" transform="translate(0,0)"/>
<path d="" fill="#0A5388" transform="translate(0,0)"/>
<path d="" fill="#0C5087" transform="translate(0,0)"/>
<path d="" fill="#13839A" transform="translate(0,0)"/>
<path d="" fill="#0A4F85" transform="translate(0,0)"/>
<path d="" fill="#098FA9" transform="translate(0,0)"/>
<path d="" fill="#0A4D82" transform="translate(0,0)"/>
<path d="" fill="#074D86" transform="translate(0,0)"/>
<path d="" fill="#0C90A4" transform="translate(0,0)"/>
<path d="" fill="#0C889E" transform="translate(0,0)"/>
<path d="" fill="#0E497E" transform="translate(0,0)"/>
<path d="" fill="#0A5C90" transform="translate(0,0)"/>
<path d="" fill="#0F8B9F" transform="translate(0,0)"/>
<path d="" fill="#0F497F" transform="translate(0,0)"/>
<path d="" fill="#0D4C80" transform="translate(0,0)"/>
<path d="" fill="#0D4D81" transform="translate(0,0)"/>
<path d="" fill="#0D5A8B" transform="translate(0,0)"/>
<path d="" fill="#05528E" transform="translate(0,0)"/>
<path d="" fill="#05538C" transform="translate(0,0)"/>
<path d="" fill="#01518F" transform="translate(0,0)"/>
<path d="" fill="#094D86" transform="translate(0,0)"/>
<path d="" fill="#05528D" transform="translate(0,0)"/>
<path d="" fill="#054F87" transform="translate(0,0)"/>
</svg>
